<svg width="20" height="22" viewBox="0 0 20 22" fill="none" xmlns="http://www.w3.org/2000/svg">
<path d="M7.30589 5.60787H9.22897V3.6848C9.22897 3.30445 9.11618 2.93264 8.90487 2.61639C8.69356 2.30014 8.39322 2.05366 8.04182 1.90811C7.69042 1.76255 7.30376 1.72447 6.93072 1.79867C6.55768 1.87287 6.21502 2.05603 5.94607 2.32498C5.67712 2.59392 5.49397 2.93658 5.41976 3.30962C5.34556 3.68266 5.38365 4.06933 5.5292 4.42073C5.67475 4.77212 5.92124 5.07247 6.23749 5.28378C6.55373 5.49509 6.92554 5.60787 7.30589 5.60787Z" fill="black"/>
<path d="M14.6157 3.6848C14.6157 3.17476 14.4131 2.68562 14.0524 2.32497C13.6918 1.96433 13.2026 1.76172 12.6926 1.76172C12.1826 1.76172 11.6934 1.96433 11.3328 2.32497C10.9721 2.68562 10.7695 3.17476 10.7695 3.6848V5.60787H12.6926C13.2026 5.60787 13.6918 5.40526 14.0524 5.04462C14.4131 4.68397 14.6157 4.19483 14.6157 3.6848Z" fill="black"/>
<path d="M1.53906 18.6851C1.53906 19.5011 1.86324 20.2838 2.44027 20.8608C3.01731 21.4378 3.79993 21.762 4.61599 21.762H9.03906C9.09007 21.762 9.13898 21.7418 9.17504 21.7057C9.21111 21.6696 9.23137 21.6207 9.23137 21.5697V12.7236C9.23137 12.6726 9.21111 12.6236 9.17504 12.5876C9.13898 12.5515 9.09007 12.5312 9.03906 12.5312H1.92368C1.82167 12.5312 1.72384 12.5718 1.65171 12.6439C1.57958 12.716 1.53906 12.8139 1.53906 12.9159V18.6851Z" fill="white"/>
<path d="M9.23077 10.8004V5.60812H10.7692V10.8004C10.7692 10.8514 10.7895 10.9003 10.8256 10.9364C10.8616 10.9725 10.9105 10.9927 10.9615 10.9927H17.6923C17.9544 10.9927 18.2145 10.948 18.4615 10.8605C18.9111 10.7009 19.3002 10.4062 19.5757 10.0167C19.8511 9.62721 19.9993 9.16207 20 8.68504V7.91581C20 7.30377 19.7569 6.7168 19.3241 6.28402C18.8913 5.85125 18.3043 5.60812 17.6923 5.60812H15.7433C15.7265 5.60785 15.7101 5.60321 15.6957 5.59466C15.6813 5.58612 15.6694 5.57395 15.6611 5.55938C15.6529 5.54481 15.6486 5.52833 15.6487 5.51158C15.6487 5.49483 15.6532 5.47839 15.6615 5.46389C16.1067 4.71239 16.2512 3.8204 16.0663 2.96678C15.8813 2.11317 15.3805 1.36103 14.6642 0.861177C13.9479 0.361328 13.0692 0.150726 12.2042 0.271599C11.3392 0.392472 10.5518 0.835885 10 1.51292C9.44819 0.835885 8.66084 0.392472 7.79582 0.271599C6.93079 0.150726 6.05205 0.361328 5.33579 0.861177C4.61953 1.36103 4.11871 2.11317 3.93375 2.96678C3.74878 3.8204 3.89335 4.71239 4.33846 5.46389C4.34684 5.47839 4.35128 5.49483 4.35135 5.51158C4.35142 5.52833 4.34711 5.54481 4.33885 5.55938C4.3306 5.57395 4.31867 5.58612 4.30427 5.59466C4.28987 5.60321 4.27348 5.60785 4.25673 5.60812H2.30769C1.69565 5.60812 1.10868 5.85125 0.675907 6.28402C0.243131 6.7168 0 7.30377 0 7.91581V8.68504C0.000678953 9.16207 0.148896 9.62721 0.424328 10.0167C0.699761 10.4062 1.08892 10.7009 1.53846 10.8605C1.78549 10.948 2.04563 10.9927 2.30769 10.9927H9.03846C9.08947 10.9927 9.13838 10.9725 9.17444 10.9364C9.21051 10.9003 9.23077 10.8514 9.23077 10.8004ZM10.7692 3.68504C10.7692 3.30469 10.882 2.93288 11.0933 2.61664C11.3046 2.30039 11.605 2.0539 11.9564 1.90835C12.3078 1.7628 12.6944 1.72471 13.0675 1.79891C13.4405 1.87312 13.7832 2.05627 14.0521 2.32522C14.3211 2.59417 14.5042 2.93683 14.5784 3.30987C14.6526 3.68291 14.6146 4.06957 14.469 4.42097C14.3234 4.77237 14.077 5.07271 13.7607 5.28402C13.4445 5.49533 13.0727 5.60812 12.6923 5.60812H10.7692V3.68504ZM7.17019 1.76677C7.43365 1.74789 7.69818 1.78348 7.94728 1.87132C8.19638 1.95917 8.42471 2.09739 8.61804 2.27737C8.81137 2.45735 8.96555 2.67522 9.07097 2.91741C9.17639 3.1596 9.23079 3.4209 9.23077 3.68504V5.60812H7.30769C6.81043 5.60684 6.33299 5.41299 5.97558 5.06726C5.61817 4.72153 5.40857 4.25079 5.39078 3.75385C5.37299 3.2569 5.54839 2.77238 5.88016 2.40198C6.21194 2.03157 6.67429 1.80408 7.17019 1.76725V1.76677Z" fill="white"/>
<path d="M10.9618 21.762H15.3849C16.201 21.762 16.9836 21.4378 17.5606 20.8608C18.1377 20.2838 18.4618 19.5011 18.4618 18.6851V12.9159C18.4618 12.8139 18.4213 12.716 18.3492 12.6439C18.2771 12.5718 18.1792 12.5312 18.0772 12.5312H10.9618C10.9108 12.5312 10.8619 12.5515 10.8259 12.5876C10.7898 12.6236 10.7695 12.6726 10.7695 12.7236V21.5697C10.7695 21.6207 10.7898 21.6696 10.8259 21.7057C10.8619 21.7418 10.9108 21.762 10.9618 21.762Z" fill="white"/>
</svg>
