<svg width="20" height="24" viewBox="0 0 20 24" fill="none" xmlns="http://www.w3.org/2000/svg">
<path d="M11.9721 4.69084L14.7544 5.42924C14.8267 5.44401 14.8859 5.50332 14.9027 5.57627L15.6361 8.35843C15.6558 8.44016 15.7273 8.4975 15.8109 8.4975C15.8952 8.4975 15.9667 8.44012 15.9857 8.35843L16.7199 5.57627C16.7358 5.50332 16.7951 5.44401 16.8673 5.42924L19.6498 4.69084C19.7312 4.67563 19.789 4.60307 19.789 4.51946C19.789 4.43509 19.7312 4.36405 19.6498 4.34767L16.8673 3.60972C16.7951 3.59415 16.7358 3.53565 16.7199 3.46269L15.9857 0.680486C15.9667 0.599561 15.8952 0.541016 15.8109 0.541016C15.7273 0.541016 15.6558 0.599561 15.6361 0.680486L14.9027 3.46264C14.8859 3.5356 14.8267 3.5941 14.7544 3.60968L11.9721 4.34767C11.89 4.36401 11.833 4.43509 11.833 4.51946C11.833 4.60307 11.89 4.67563 11.9721 4.69084Z" fill="white"/>
<path d="M2.19429 8.38786L2.71797 10.3758C2.73243 10.4347 2.78368 10.4753 2.84334 10.4753C2.90341 10.4753 2.95435 10.4347 2.9684 10.3758L3.49245 8.38786C3.50346 8.33544 3.54643 8.29328 3.59848 8.28222L5.5867 7.75554C5.64484 7.74341 5.68629 7.69095 5.68629 7.63165C5.68629 7.57234 5.64484 7.52145 5.5867 7.50927L3.59848 6.98183C3.54638 6.97041 3.50346 6.92937 3.49245 6.87691L2.9684 4.88789C2.95435 4.83015 2.90341 4.78906 2.84334 4.78906C2.78368 4.78906 2.73243 4.83011 2.71797 4.88789L2.19429 6.87691C2.18171 6.92937 2.14031 6.97041 2.08785 6.98183L0.0999479 7.50927C0.0406864 7.52145 0 7.57234 0 7.63165C0 7.69091 0.0406417 7.74337 0.0999479 7.75554L2.08785 8.28222C2.14035 8.29328 2.18171 8.33544 2.19429 8.38786Z" fill="white"/>
<path d="M0.24707 16.9922V18.7828C0.24707 19.0781 0.306377 19.3658 0.424586 19.6516C0.542751 19.9366 0.719864 20.2197 0.955836 20.4964C1.05543 20.6123 1.16715 20.7271 1.28683 20.8399V17.9742C1.20855 17.9157 1.13255 17.8568 1.05847 17.7971C0.750211 17.5455 0.477761 17.2768 0.24707 16.9922Z" fill="white"/>
<path d="M2.11914 21.4932C2.39656 21.6752 2.70061 21.8497 3.0308 22.013C3.17255 22.0837 3.32035 22.1506 3.47052 22.216V19.1689C2.98524 18.9728 2.53299 18.7551 2.11914 18.5176V21.4932Z" fill="white"/>
<path d="M4.30194 19.4727V22.5261H4.25293C4.84537 22.7378 5.48798 22.9191 6.1728 23.0639V19.9614C5.72887 19.8721 5.29873 19.7695 4.88681 19.6525C4.68772 19.5954 4.49235 19.5357 4.30194 19.4727Z" fill="white"/>
<path d="M7.00488 23.2145C7.86068 23.3528 8.7659 23.4386 9.70759 23.4577V20.3366C8.77082 20.3183 7.86565 20.2404 7.00488 20.1074V23.2145Z" fill="white"/>
<path d="M10.54 23.4558C11.5205 23.4368 12.4607 23.344 13.3467 23.1962V20.0938C12.4557 20.2351 11.5145 20.3199 10.54 20.3389V23.4558Z" fill="white"/>
<path d="M14.1777 23.0397C14.5053 22.9683 14.8253 22.8904 15.1323 22.803C15.4508 22.7125 15.7563 22.6137 16.0497 22.5073V19.4375C15.463 19.6355 14.8367 19.805 14.1777 19.941V23.0397Z" fill="white"/>
<path d="M16.8818 19.1258V22.1714C17.3865 21.9433 17.8395 21.6925 18.2332 21.4227V18.457C18.0272 18.5786 17.8114 18.696 17.5864 18.8081C17.3607 18.9195 17.1251 19.0251 16.8818 19.1258Z" fill="white"/>
<path d="M19.0146 17.932H19.064V20.7419C19.4152 20.3896 19.6697 20.0222 19.8218 19.6528C19.9404 19.367 19.9996 19.0793 19.9996 18.784V16.9941C19.9746 17.0253 19.9495 17.0565 19.9228 17.0872C19.666 17.3878 19.3597 17.6687 19.0146 17.932Z" fill="white"/>
<path d="M19.8219 15.1573C19.9404 14.8715 19.9997 14.5842 19.9997 14.2893C19.9997 13.9944 19.9404 13.7071 19.8219 13.4214C19.704 13.136 19.527 12.8529 19.2906 12.5766C18.8193 12.0237 18.111 11.5015 17.2164 11.0599C15.4288 10.1737 12.9094 9.60981 10.1235 9.61133C8.29522 9.61133 6.58165 9.85223 5.11439 10.2699C3.64677 10.6868 2.42614 11.2831 1.58404 11.9705C1.02123 12.4277 0.630569 12.9224 0.424586 13.4214C0.306421 13.7072 0.24707 13.9945 0.24707 14.2894C0.24707 14.5843 0.306377 14.8716 0.424586 15.1573C0.542751 15.4424 0.719864 15.7255 0.955836 16.0017C1.42782 16.5554 2.13619 17.0768 3.02999 17.5188C4.81759 18.4054 7.33751 18.969 10.1235 18.9678C11.9521 18.9678 13.6655 18.7265 15.1323 18.3085C16.6 17.8917 17.8213 17.2958 18.6628 16.6087C19.2252 16.1506 19.6166 15.6559 19.8219 15.1573ZM13.4595 15.3105C13.3299 15.5445 13.1236 15.744 12.8427 15.9093C12.5558 16.0781 12.1967 16.205 11.7657 16.2894C11.5759 16.3266 11.3757 16.3517 11.1721 16.3722L11.255 17.3805H9.6445L9.63344 16.392C9.19587 16.365 8.77916 16.3137 8.39002 16.2339C7.80157 16.1131 7.07727 15.6403 7.07727 15.6403C7.01515 15.6126 6.9775 15.5643 6.97504 15.5112C6.9724 15.458 7.00315 15.4048 7.06094 15.3675L7.83371 14.8575C7.9145 14.8043 8.03401 14.7948 8.12366 14.8336C8.12366 14.8336 8.64753 15.1607 9.05855 15.2405C9.47276 15.3196 9.88678 15.3599 10.2982 15.3599C10.8181 15.3592 11.2431 15.2938 11.569 15.1645C11.892 15.0353 12.0331 14.84 11.9986 14.5786C11.9744 14.395 11.877 14.2533 11.705 14.1503C11.5361 14.048 11.2632 13.9854 10.8876 13.958L9.66066 13.8903C8.9386 13.844 8.3902 13.7129 8.01857 13.5019C7.65355 13.294 7.49662 12.9885 7.53803 12.5941C7.56005 12.3827 7.64805 12.1988 7.80005 12.04C7.94883 11.8846 8.14282 11.755 8.38013 11.6509C8.61597 11.5483 8.88462 11.4708 9.18849 11.4198C9.31386 11.3985 9.44576 11.3849 9.57986 11.3716L9.57476 10.8973L10.722 10.8943L10.7604 11.3598C11.0376 11.3742 11.3029 11.3993 11.5525 11.4381C11.9799 11.5023 12.4553 11.7026 12.4553 11.7026C12.5142 11.72 12.5582 11.7508 12.5746 11.7874C12.5909 11.825 12.5776 11.8614 12.5379 11.888L12.0171 12.2407C11.9605 12.2787 11.8655 12.2893 11.7827 12.2646C11.7827 12.2646 11.4184 12.1168 11.1163 12.0712C10.8163 12.0256 10.5046 12.0035 10.1784 12.0043C9.75331 12.0051 9.43811 12.0541 9.23347 12.1525C9.02561 12.2528 8.91881 12.3836 8.91447 12.5481C8.91008 12.699 8.9817 12.816 9.13334 12.8989C9.28535 12.9825 9.54316 13.0372 9.90974 13.0592L10.9383 13.1139C11.705 13.1558 12.3037 13.285 12.7382 13.5054C13.1844 13.7308 13.4572 14.0697 13.5553 14.5345C13.6169 14.824 13.5849 15.0832 13.4595 15.3105ZM18.4591 14.6375L17.2552 14.9567C17.2232 14.9628 17.1974 14.989 17.1906 15.0213L16.8728 16.2248C16.8645 16.2601 16.8341 16.2852 16.7976 16.2852C16.7611 16.2852 16.73 16.2601 16.7216 16.2248L16.4039 15.0213C16.3963 14.989 16.3713 14.9627 16.3393 14.9567L15.1354 14.6375C15.0997 14.6302 15.0746 14.5987 15.0746 14.563C15.0746 14.5265 15.0997 14.4953 15.1354 14.4881L16.3393 14.1692C16.3713 14.1613 16.3963 14.1373 16.4039 14.1054L16.7216 12.9007C16.73 12.865 16.7611 12.8403 16.7976 12.8403C16.8341 12.8403 16.8645 12.865 16.8728 12.9007L17.1906 14.1054C17.1974 14.1373 17.2233 14.1613 17.2552 14.1692L18.4591 14.4881C18.4941 14.4953 18.5199 14.5265 18.5199 14.563C18.5199 14.5987 18.4941 14.6302 18.4591 14.6375Z" fill="white"/>
</svg>
