<svg width="10" height="10" viewBox="0 0 20 20" fill="none" xmlns="http://www.w3.org/2000/svg">
<path d="M7 0H2C0.89543 0 0 0.89543 0 2V9C0 10.1046 0.89543 11 2 11H7C8.10457 11 9 10.1046 9 9V2C9 0.89543 8.10457 0 7 0Z" fill="white"/>
<path d="M18 0H13C11.8954 0 11 0.89543 11 2V5C11 6.10457 11.8954 7 13 7H18C19.1046 7 20 6.10457 20 5V2C20 0.89543 19.1046 0 18 0Z" fill="white"/>
<path d="M7 13H2C0.89543 13 0 13.8954 0 15V18C0 19.1046 0.89543 20 2 20H7C8.10457 20 9 19.1046 9 18V15C9 13.8954 8.10457 13 7 13Z" fill="white"/>
<path d="M18 9H13C11.8954 9 11 9.89543 11 11V18C11 19.1046 11.8954 20 13 20H18C19.1046 20 20 19.1046 20 18V11C20 9.89543 19.1046 9 18 9Z" fill="white"/>
</svg>
