<svg width="16" height="20" viewBox="0 0 16 20" fill="none" xmlns="http://www.w3.org/2000/svg">
<path d="M15.76 14.0131C14.7712 12.9417 13.5712 12.0867 12.2357 11.5019C10.9001 10.9171 9.45796 10.6152 8 10.6152C6.54204 10.6152 5.09988 10.9171 3.76434 11.5019C2.42881 12.0867 1.22883 12.9417 0.24 14.0131C0.0873333 14.1819 0.00193371 14.4009 0 14.6285V18.3208C0.00323597 18.5634 0.101915 18.7951 0.274676 18.9655C0.447437 19.136 0.680379 19.2315 0.923077 19.2315H15.0769C15.3217 19.2315 15.5565 19.1343 15.7296 18.9612C15.9027 18.7881 16 18.5533 16 18.3085V14.6162C15.9951 14.3928 15.9099 14.1787 15.76 14.0131Z" fill="white"/>
<path d="M7.9991 9.38487C10.3782 9.38487 12.3068 7.45626 12.3068 5.0772C12.3068 2.69814 10.3782 0.769531 7.9991 0.769531C5.62003 0.769531 3.69141 2.69814 3.69141 5.0772C3.69141 7.45626 5.62003 9.38487 7.9991 9.38487Z" fill="white"/>
</svg>
