<svg width="10" height="10" viewBox="0 0 20 14" fill="none" xmlns="http://www.w3.org/2000/svg">
<path d="M14.6522 0.361328C14.2082 0.361328 13.7872 0.461367 13.4102 0.639531C13.5541 0.825 13.6835 1.02242 13.7962 1.2302C13.9066 1.43395 14.001 1.6477 14.078 1.86941C14.2314 2.31164 14.315 2.78617 14.315 3.27992C14.315 3.77363 14.2314 4.2482 14.078 4.69039C14.0011 4.91219 13.9066 5.12582 13.7962 5.32961C13.6835 5.53738 13.5542 5.73477 13.4102 5.92027C13.7872 6.0984 14.2082 6.19852 14.6522 6.19852C16.2615 6.19859 17.5708 4.8893 17.5708 3.28C17.5708 1.67059 16.2615 0.361328 14.6522 0.361328Z" fill="white"/>
<path d="M14.6506 7.59375C14.478 7.59375 14.3058 7.60227 14.1348 7.61879C14.4012 7.82625 14.6518 8.05297 14.8843 8.29726C15.1188 8.54379 15.3346 8.80816 15.5301 9.08777C16.1687 10.0013 16.5874 11.0795 16.7077 12.2449C16.7314 12.4743 16.7436 12.707 16.7436 12.9426C16.7436 13.1871 16.7011 13.4219 16.6236 13.6402H19.3018C19.6871 13.6402 19.9994 13.3278 19.9994 12.9426C19.9994 9.9932 17.6 7.59375 14.6506 7.59375Z" fill="white"/>
<path d="M5.9225 4.69047C5.76906 4.24828 5.68543 3.77371 5.68543 3.28C5.68543 2.78625 5.76906 2.31172 5.9225 1.86949C5.99949 1.64762 6.09382 1.43395 6.20429 1.2302C6.31695 1.02242 6.44628 0.825039 6.59031 0.639531C6.21324 0.461406 5.79226 0.361328 5.34828 0.361328C3.73894 0.361328 2.42969 1.67059 2.42969 3.27992C2.42969 4.88922 3.73894 6.19852 5.34828 6.19852C5.79226 6.19852 6.21324 6.09844 6.59031 5.92027C6.44632 5.73477 6.31695 5.53738 6.20429 5.32961C6.09382 5.1259 5.99945 4.91223 5.9225 4.69047Z" fill="white"/>
<path d="M5.34882 7.59375C2.39949 7.59375 0 9.9932 0 12.9426C0 13.3279 0.312382 13.6402 0.697655 13.6402H3.37578C3.29839 13.4219 3.25582 13.1871 3.25582 12.9426C3.25582 12.707 3.26804 12.4743 3.29171 12.2449C3.41203 11.0795 3.83066 10.0013 4.46929 9.08777C4.6648 8.80816 4.88058 8.54379 5.11515 8.29726C5.34757 8.05297 5.59823 7.82625 5.86464 7.61879C5.69362 7.60227 5.52148 7.59375 5.34882 7.59375Z" fill="white"/>
<path d="M12.7113 2.19984C12.6133 1.95488 12.4835 1.72602 12.3262 1.51887C11.7928 0.816211 10.949 0.361328 10.0007 0.361328C9.0523 0.361328 8.20855 0.816211 7.67508 1.51895C7.51781 1.72609 7.38805 1.95496 7.29004 2.19992C7.15641 2.53426 7.08203 2.89848 7.08203 3.27996C7.08203 3.66141 7.15641 4.02563 7.29004 4.35996C7.38805 4.60492 7.51781 4.83379 7.67508 5.04094C8.20855 5.74359 9.0523 6.19852 10.0007 6.19852C10.949 6.19852 11.7928 5.74359 12.3262 5.04086C12.4835 4.83371 12.6133 4.60484 12.7113 4.35988C12.8449 4.02555 12.9193 3.66137 12.9193 3.27988C12.9193 2.8984 12.8449 2.53418 12.7113 2.19984Z" fill="white"/>
<path d="M15.3044 12.2444C15.1439 11.0177 14.5661 9.92062 13.7187 9.10027C13.5181 8.90609 13.3025 8.72734 13.0736 8.56621C12.8375 8.39996 12.5875 8.25215 12.3256 8.12527C11.822 7.88129 11.2746 7.71402 10.6988 7.63867V12.0118C10.6988 12.3971 10.3864 12.7095 10.0011 12.7095C9.61581 12.7095 9.30347 12.3971 9.30347 12.0118V7.63867C8.72757 7.71402 8.18023 7.88129 7.6766 8.12527C7.41468 8.25219 7.16468 8.39996 6.92859 8.56621C6.69972 8.72738 6.48406 8.90613 6.28347 9.10027C5.43601 9.92059 4.85828 11.0177 4.69777 12.2444C4.66793 12.4727 4.65234 12.7056 4.65234 12.942C4.65234 13.3273 4.96473 13.6397 5.35 13.6397H14.6523C15.0376 13.6397 15.35 13.3273 15.35 12.942C15.3499 12.7056 15.3344 12.4727 15.3044 12.2444Z" fill="white"/>
</svg>
