<svg width="20" height="20" viewBox="0 0 20 20" fill="none" xmlns="http://www.w3.org/2000/svg">
<path d="M18.75 17.4999H16.25V8.74965H18.75C19.2931 8.74965 19.774 8.39808 19.9403 7.88181C20.1062 7.36429 19.9184 6.79771 19.4765 6.4827L10.7265 0.232507C10.2919 -0.0775024 9.70842 -0.0775024 9.27404 0.232507L0.524061 6.4827C0.0821873 6.79771 -0.105937 7.36398 0.0603124 7.88181C0.225937 8.39808 0.706873 8.74965 1.25 8.74965H3.74999V17.4999H1.25C0.559061 17.4999 0 18.059 0 18.75V20H20V18.75C20 18.059 19.4409 17.4999 18.75 17.4999ZM8.74998 17.4999H6.24999V8.74965H8.74998V17.4999ZM13.75 17.4999H11.25V8.74965H13.75V17.4999Z" fill="white"/>
</svg>
