<svg width="20" height="20" viewBox="0 0 20 20" fill="none" xmlns="http://www.w3.org/2000/svg">
<path d="M18.75 11.25H8.75C8.39844 11.25 8.10221 11.1263 7.86133 10.8789C7.62044 10.6315 7.5 10.3353 7.5 9.99023C7.5 9.64518 7.62044 9.35221 7.86133 9.11133C8.10221 8.87044 8.39844 8.75 8.75 8.75H18.75C19.1016 8.75 19.3978 8.87044 19.6387 9.11133C19.8796 9.35221 20 9.64518 20 9.99023C20 10.3353 19.8796 10.6315 19.6387 10.8789C19.3978 11.1263 19.1016 11.25 18.75 11.25ZM18.75 3.75H8.75C8.39844 3.75 8.10221 3.6263 7.86133 3.37891C7.62044 3.13151 7.5 2.83529 7.5 2.49023C7.5 2.14518 7.62044 1.85221 7.86133 1.61133C8.10221 1.37044 8.39844 1.25 8.75 1.25H18.75C19.1016 1.25 19.3978 1.37044 19.6387 1.61133C19.8796 1.85221 20 2.14518 20 2.49023C20 2.83529 19.8796 3.13151 19.6387 3.37891C19.3978 3.6263 19.1016 3.75 18.75 3.75ZM2.5 20C1.8099 20 1.2207 19.7559 0.732422 19.2676C0.244141 18.7793 0 18.1901 0 17.5C0 16.8099 0.244141 16.2207 0.732422 15.7324C1.2207 15.2441 1.8099 15 2.5 15C3.1901 15 3.7793 15.2441 4.26758 15.7324C4.75586 16.2207 5 16.8099 5 17.5C5 18.1901 4.75586 18.7793 4.26758 19.2676C3.7793 19.7559 3.1901 20 2.5 20ZM2.5 12.5C1.8099 12.5 1.2207 12.2559 0.732422 11.7676C0.244141 11.2793 0 10.6901 0 10C0 9.3099 0.244141 8.7207 0.732422 8.23242C1.2207 7.74414 1.8099 7.5 2.5 7.5C3.1901 7.5 3.7793 7.74414 4.26758 8.23242C4.75586 8.7207 5 9.3099 5 10C5 10.6901 4.75586 11.2793 4.26758 11.7676C3.7793 12.2559 3.1901 12.5 2.5 12.5ZM2.5 5C1.8099 5 1.2207 4.75586 0.732422 4.26758C0.244141 3.7793 0 3.1901 0 2.5C0 1.8099 0.244141 1.2207 0.732422 0.732422C1.2207 0.244141 1.8099 0 2.5 0C3.1901 0 3.7793 0.244141 4.26758 0.732422C4.75586 1.2207 5 1.8099 5 2.5C5 3.1901 4.75586 3.7793 4.26758 4.26758C3.7793 4.75586 3.1901 5 2.5 5ZM8.75 16.25H18.75C19.1016 16.25 19.3978 16.3704 19.6387 16.6113C19.8796 16.8522 20 17.1484 20 17.5C20 17.8516 19.8796 18.1478 19.6387 18.3887C19.3978 18.6296 19.1016 18.75 18.75 18.75H8.75C8.39844 18.75 8.10221 18.6296 7.86133 18.3887C7.62044 18.1478 7.5 17.8516 7.5 17.5C7.5 17.1484 7.62044 16.8522 7.86133 16.6113C8.10221 16.3704 8.39844 16.25 8.75 16.25Z" fill="white"/>
</svg>
