<svg width="20" height="22" viewBox="0 0 20 22" fill="none" xmlns="http://www.w3.org/2000/svg">
<path fill-rule="evenodd" clip-rule="evenodd" d="M10.052 0.625001H9.948C9.0495 0.624971 8.3003 0.624951 7.70552 0.704911C7.07773 0.789321 6.51093 0.974991 6.05546 1.43046C5.59999 1.88593 5.41432 2.45273 5.32991 3.08052C5.27259 3.50689 5.25637 4.52647 5.25179 5.40066C3.22954 5.46671 2.01536 5.70278 1.17157 6.54657C1.19209e-07 7.71815 0 9.6038 0 13.375C0 17.1462 1.19209e-07 19.0319 1.17157 20.2034C2.34314 21.375 4.22876 21.375 7.99998 21.375H12C15.7712 21.375 17.6569 21.375 18.8284 20.2034C20 19.0319 20 17.1462 20 13.375C20 9.6038 20 7.71815 18.8284 6.54657C17.9846 5.70278 16.7705 5.46671 14.7482 5.40066C14.7436 4.52647 14.7274 3.50689 14.6701 3.08052C14.5857 2.45273 14.4 1.88593 13.9445 1.43046C13.4891 0.974991 12.9223 0.789321 12.2945 0.704911C11.6997 0.624951 10.9505 0.624971 10.052 0.625001ZM13.2479 5.37688C13.2434 4.53023 13.229 3.61907 13.1835 3.2804C13.1214 2.81893 13.0142 2.62144 12.8839 2.49112C12.7536 2.3608 12.5561 2.25358 12.0946 2.19154C11.6116 2.1266 10.964 2.125 10 2.125C9.036 2.125 8.3884 2.1266 7.90539 2.19154C7.44393 2.25358 7.24644 2.3608 7.11612 2.49112C6.9858 2.62144 6.87858 2.81893 6.81654 3.2804C6.771 3.61907 6.75661 4.53023 6.75208 5.37688C7.1435 5.375 7.55885 5.375 8 5.375H12C12.4412 5.375 12.8565 5.375 13.2479 5.37688ZM10 8.625C10.4142 8.625 10.75 8.96079 10.75 9.375V9.3852C11.8388 9.6595 12.75 10.518 12.75 11.7083C12.75 12.1225 12.4142 12.4583 12 12.4583C11.5858 12.4583 11.25 12.1225 11.25 11.7083C11.25 11.3243 10.8242 10.7917 10 10.7917C9.1758 10.7917 8.75 11.3243 8.75 11.7083C8.75 12.0924 9.1758 12.625 10 12.625C11.3849 12.625 12.75 13.5848 12.75 15.0417C12.75 16.232 11.8388 17.0905 10.75 17.3648V17.375C10.75 17.7892 10.4142 18.125 10 18.125C9.5858 18.125 9.25 17.7892 9.25 17.375V17.3648C8.1612 17.0905 7.25 16.232 7.25 15.0417C7.25 14.6275 7.58579 14.2917 8 14.2917C8.4142 14.2917 8.75 14.6275 8.75 15.0417C8.75 15.4257 9.1758 15.9583 10 15.9583C10.8242 15.9583 11.25 15.4257 11.25 15.0417C11.25 14.6576 10.8242 14.125 10 14.125C8.6151 14.125 7.25 13.1653 7.25 11.7083C7.25 10.518 8.1612 9.6595 9.25 9.3852V9.375C9.25 8.96079 9.5858 8.625 10 8.625Z" fill="white"/>
</svg>
