<svg width="20" height="14" viewBox="0 0 20 14" fill="none" xmlns="http://www.w3.org/2000/svg">
<path d="M18.75 0.75H1.25C0.918479 0.75 0.600537 0.881696 0.366116 1.11612C0.131696 1.35054 0 1.66848 0 2V12C0 12.3315 0.131696 12.6495 0.366116 12.8839C0.600537 13.1183 0.918479 13.25 1.25 13.25H18.75C19.0815 13.25 19.3995 13.1183 19.6339 12.8839C19.8683 12.6495 20 12.3315 20 12V2C20 1.66848 19.8683 1.35054 19.6339 1.11612C19.3995 0.881696 19.0815 0.75 18.75 0.75ZM1.25 12V8.96875C2.0313 9.02627 2.76524 9.36515 3.31574 9.92254C3.86624 10.4799 4.19596 11.218 4.24375 12H1.25ZM1.25 5.03125V2H4.24375C4.19596 2.78196 3.86624 3.52006 3.31574 4.07745C2.76524 4.63485 2.0313 4.97373 1.25 5.03125ZM10 11.4687C7.83125 11.4687 6.0625 9.4625 6.0625 7C6.0625 4.5375 7.83125 2.53125 10 2.53125C12.1687 2.53125 13.9375 4.5375 13.9375 7C13.9375 9.4625 12.1687 11.4687 10 11.4687ZM18.75 12H15.7812C15.8283 11.222 16.1545 10.4871 16.6999 9.93027C17.2452 9.37343 17.9732 9.03203 18.75 8.96875V12ZM18.75 5.03125C17.9732 4.96797 17.2452 4.62657 16.6999 4.06973C16.1545 3.51289 15.8283 2.77799 15.7812 2H18.75V5.03125Z" fill="white"/>
<path d="M10 9.95078C11.3807 9.95078 12.5 8.63002 12.5 7.00078C12.5 5.37154 11.3807 4.05078 10 4.05078C8.61929 4.05078 7.5 5.37154 7.5 7.00078C7.5 8.63002 8.61929 9.95078 10 9.95078Z" fill="white"/>
</svg>
