<svg width="20" height="14" viewBox="0 0 20 14" fill="none" xmlns="http://www.w3.org/2000/svg">
<path d="M6.08952 7.0261C8.11428 7.0261 9.64173 5.51549 9.64173 3.51305C9.64173 1.51061 8.11428 0 6.08952 0C4.06475 0 2.5373 1.51061 2.5373 3.51305C2.5373 5.51549 4.06475 7.0261 6.08952 7.0261ZM7.10444 7.97763H5.0746C2.27646 7.97763 0 10.229 0 12.9963V14H12.179V12.9963C12.179 10.229 9.90257 7.97763 7.10444 7.97763ZM18.5669 3.25208L14.2028 7.56008L12.8915 6.26326L11.4564 7.68254L14.2028 10.3966L20 4.67336L18.5669 3.25208Z" fill="white"/>
</svg>
