<svg width="700" height="660" viewBox="0 0 700 660" fill="none" xmlns="http://www.w3.org/2000/svg">
<path d="M660.309 286.743C660.309 286.743 564.997 54.247 390.755 9.35212C216.513 -35.5428 143.434 101.736 116.733 196.951C90.0323 292.167 -8.36394 418.223 0.571554 504.807C9.06325 587.096 81.1861 626.023 148.545 642.724C234.159 663.95 331.447 665.562 417.384 647.868C437.83 643.658 457.886 638.003 477.796 631.513C518.177 618.345 557.804 608.145 598.702 597.236C676.502 576.482 707.331 492.917 698.55 412.954C693.607 367.957 677.115 327.696 660.309 286.743Z" fill="#92E3A9"/>
<path opacity="0.7" d="M660.309 286.743C660.309 286.743 564.997 54.247 390.755 9.35212C216.513 -35.5428 143.434 101.736 116.733 196.951C90.0323 292.167 -8.36394 418.223 0.571554 504.807C9.06325 587.096 81.1861 626.023 148.545 642.724C234.159 663.95 331.447 665.562 417.384 647.868C437.83 643.658 457.886 638.003 477.796 631.513C518.177 618.345 557.804 608.145 598.702 597.236C676.502 576.482 707.331 492.917 698.55 412.954C693.607 367.957 677.115 327.696 660.309 286.743Z" fill="white"/>
<path d="M43.24 302.482L70.7092 565.683" stroke="#263238" stroke-width="2" stroke-miterlimit="10"/>
<path d="M66.2816 515.313L53.8285 502.16" stroke="#263238" stroke-width="2" stroke-miterlimit="10"/>
<path d="M57.6127 506.101C57.6127 506.101 57.9686 500.283 52.6565 495.538C49.4605 492.683 32.638 485.606 31.0415 491.532C29.305 497.976 46.5237 510.632 57.6127 506.101Z" fill="#92E3A9" stroke="#263238" stroke-miterlimit="10"/>
<path d="M57.6127 506.101L41.5973 496.121" stroke="#263238" stroke-width="0.5" stroke-miterlimit="10"/>
<path d="M69.4046 545.245L56.953 532.094" stroke="#263238" stroke-width="2" stroke-miterlimit="10"/>
<path d="M60.7357 536.035C60.7357 536.035 61.0916 530.216 55.7795 525.472C52.5835 522.617 35.761 515.54 34.1645 521.465C32.4295 527.909 49.6467 540.564 60.7357 536.035Z" fill="#92E3A9" stroke="#263238" stroke-miterlimit="10"/>
<path d="M60.7357 536.034L44.7218 526.055" stroke="#263238" stroke-width="0.5" stroke-miterlimit="10"/>
<path d="M58.6583 442.269L46.2067 429.117" stroke="#263238" stroke-width="2" stroke-miterlimit="10"/>
<path d="M49.9893 433.058C49.9893 433.058 50.3453 427.24 45.0331 422.495C41.8372 419.64 25.0146 412.563 23.4182 418.489C21.6832 424.933 38.9004 437.587 49.9893 433.058Z" fill="#92E3A9" stroke="#263238" stroke-miterlimit="10"/>
<path d="M49.9894 433.058L33.9755 423.078" stroke="#263238" stroke-width="0.5" stroke-miterlimit="10"/>
<path d="M61.7826 472.202L49.3295 459.051" stroke="#263238" stroke-width="2" stroke-miterlimit="10"/>
<path d="M53.1137 462.992C53.1137 462.992 53.4696 457.173 48.1575 452.429C44.9615 449.574 28.139 442.497 26.5425 448.423C24.806 454.866 42.0247 467.521 53.1137 462.992Z" fill="#92E3A9" stroke="#263238" stroke-miterlimit="10"/>
<path d="M53.1137 462.993L37.0983 453.014" stroke="#263238" stroke-width="0.5" stroke-miterlimit="10"/>
<path d="M53.5843 393.645L41.1312 380.492" stroke="#263238" stroke-width="2" stroke-miterlimit="10"/>
<path d="M44.9154 384.434C44.9154 384.434 45.2714 378.615 39.9592 373.871C36.7633 371.016 19.9407 363.939 18.3442 369.863C16.6078 376.308 33.8265 388.964 44.9154 384.434Z" fill="#92E3A9" stroke="#263238" stroke-miterlimit="10"/>
<path d="M44.9154 384.433L28.9 374.453" stroke="#263238" stroke-width="0.5" stroke-miterlimit="10"/>
<path d="M48.4866 344.807L36.035 331.654" stroke="#263238" stroke-width="2" stroke-miterlimit="10"/>
<path d="M39.8177 335.596C39.8177 335.596 40.1736 329.777 34.8615 325.033C31.6656 322.178 14.843 315.101 13.2465 321.025C11.5115 327.471 28.7288 340.125 39.8177 335.596Z" fill="#92E3A9" stroke="#263238" stroke-miterlimit="10"/>
<path d="M39.8177 335.595L23.8038 325.615" stroke="#263238" stroke-width="0.5" stroke-miterlimit="10"/>
<path d="M64.1877 497.601L73.6564 482.16" stroke="#263238" stroke-width="2" stroke-miterlimit="10"/>
<path d="M70.7688 486.799C70.7688 486.799 69.2185 481.18 73.4375 475.44C75.9752 471.987 90.9734 461.59 93.7583 467.057C96.7875 473.004 82.5532 488.942 70.7688 486.799Z" fill="#92E3A9" stroke="#263238" stroke-miterlimit="10"/>
<path d="M70.7688 486.799L85.1892 473.016" stroke="#263238" stroke-width="0.5" stroke-miterlimit="10"/>
<path d="M55.9672 418.834L65.4358 403.395" stroke="#263238" stroke-width="2" stroke-miterlimit="10"/>
<path d="M62.5482 408.029C62.5482 408.029 60.9979 402.41 65.2169 396.671C67.7546 393.217 82.7528 382.821 85.5377 388.288C88.5669 394.234 74.3326 410.172 62.5482 408.029Z" fill="#92E3A9" stroke="#263238" stroke-miterlimit="10"/>
<path d="M62.5482 408.029L76.9686 394.246" stroke="#263238" stroke-width="0.5" stroke-miterlimit="10"/>
<path d="M52.3557 384.214L61.8244 368.773" stroke="#263238" stroke-width="2" stroke-miterlimit="10"/>
<path d="M58.9352 373.412C58.9352 373.412 57.3849 367.793 61.6039 362.053C64.1416 358.6 79.1398 348.203 81.9247 353.67C84.9538 359.617 70.7211 375.554 58.9352 373.412Z" fill="#92E3A9" stroke="#263238" stroke-miterlimit="10"/>
<path d="M58.9352 373.412L73.3556 359.629" stroke="#263238" stroke-width="0.5" stroke-miterlimit="10"/>
<path d="M47.0585 333.466L56.5271 318.027" stroke="#263238" stroke-width="2" stroke-miterlimit="10"/>
<path d="M53.6394 322.664C53.6394 322.664 52.0891 317.045 56.3081 311.305C58.8458 307.852 73.844 297.455 76.6289 302.922C79.6581 308.869 65.4238 324.807 53.6394 322.664Z" fill="#92E3A9" stroke="#263238" stroke-miterlimit="10"/>
<path d="M53.6394 322.664L68.0598 308.883" stroke="#263238" stroke-width="0.5" stroke-miterlimit="10"/>
<path d="M43.0091 301.019C43.0091 301.019 41.4588 295.4 45.6779 289.661C48.2156 286.207 63.2138 275.811 65.9987 281.278C69.0278 287.224 54.7936 303.162 43.0091 301.019Z" fill="#92E3A9" stroke="#263238" stroke-miterlimit="10"/>
<path d="M43.0092 301.019L57.4296 287.236" stroke="#263238" stroke-width="0.5" stroke-miterlimit="10"/>
<path d="M43.8446 301.616C43.8446 301.616 38.0946 302.568 32.8286 297.771C29.661 294.885 20.8938 278.879 26.6229 276.683C32.854 274.293 47.2118 290.121 43.8446 301.616Z" fill="#92E3A9" stroke="#263238" stroke-miterlimit="10"/>
<path d="M43.8446 301.616L31.6506 285.828" stroke="#263238" stroke-width="0.5" stroke-miterlimit="10"/>
<path d="M115.689 338.73L88.3746 601.948" stroke="#263238" stroke-width="2" stroke-miterlimit="10"/>
<path d="M94.4136 551.745L84.936 536.311" stroke="#263238" stroke-width="2" stroke-miterlimit="10"/>
<path d="M87.8266 540.947C87.8266 540.947 89.3725 535.327 85.1519 529.59C82.6113 526.138 67.6071 515.75 64.8252 521.219C61.8005 527.167 76.0437 543.096 87.8266 540.947Z" fill="#92E3A9" stroke="#263238" stroke-miterlimit="10"/>
<path d="M87.8267 540.948L74.2104 527.885" stroke="#263238" stroke-width="0.5" stroke-miterlimit="10"/>
<path d="M101.994 478.696L92.5164 463.262" stroke="#263238" stroke-width="2" stroke-miterlimit="10"/>
<path d="M95.4069 467.898C95.4069 467.898 96.9543 462.278 92.7323 456.541C90.1916 453.089 75.1874 442.702 72.4055 448.17C69.3808 454.118 83.624 470.047 95.4069 467.898Z" fill="#92E3A9" stroke="#263238" stroke-miterlimit="10"/>
<path d="M95.407 467.9L81.7908 454.836" stroke="#263238" stroke-width="0.5" stroke-miterlimit="10"/>
<path d="M98.8874 508.634L89.4098 493.199" stroke="#263238" stroke-width="2" stroke-miterlimit="10"/>
<path d="M92.3004 497.836C92.3004 497.836 93.8477 492.215 89.6257 486.479C87.085 483.027 72.0808 472.639 69.2989 478.108C66.2743 484.056 80.5174 499.985 92.3004 497.836Z" fill="#92E3A9" stroke="#263238" stroke-miterlimit="10"/>
<path d="M92.3004 497.835L78.6842 484.771" stroke="#263238" stroke-width="0.5" stroke-miterlimit="10"/>
<path d="M107.039 430.071L97.5619 414.635" stroke="#263238" stroke-width="2" stroke-miterlimit="10"/>
<path d="M100.452 419.271C100.452 419.271 102 413.651 97.7778 407.914C95.2371 404.462 80.2329 394.075 77.451 399.543C74.4264 405.491 88.6695 421.42 100.452 419.271Z" fill="#92E3A9" stroke="#263238" stroke-miterlimit="10"/>
<path d="M100.453 419.273L86.8363 406.209" stroke="#263238" stroke-width="0.5" stroke-miterlimit="10"/>
<path d="M112.107 381.23L102.63 365.795" stroke="#263238" stroke-width="2" stroke-miterlimit="10"/>
<path d="M105.52 370.431C105.52 370.431 107.068 364.811 102.846 359.074C100.305 355.622 85.3008 345.235 82.5189 350.703C79.4942 356.651 93.7374 372.58 105.52 370.431Z" fill="#92E3A9" stroke="#263238" stroke-miterlimit="10"/>
<path d="M105.52 370.433L91.9042 357.369" stroke="#263238" stroke-width="0.5" stroke-miterlimit="10"/>
<path d="M96.0131 533.983L108.457 520.824" stroke="#263238" stroke-width="2" stroke-miterlimit="10"/>
<path d="M104.676 524.767C104.676 524.767 104.316 518.948 109.626 514.201C112.821 511.344 129.639 504.257 131.238 510.181C132.978 516.625 115.768 529.29 104.676 524.767Z" fill="#92E3A9" stroke="#263238" stroke-miterlimit="10"/>
<path d="M104.676 524.767L121.625 514.248" stroke="#263238" stroke-width="0.5" stroke-miterlimit="10"/>
<path d="M104.188 455.208L116.632 442.049" stroke="#263238" stroke-width="2" stroke-miterlimit="10"/>
<path d="M112.85 445.992C112.85 445.992 112.49 440.175 117.801 435.425C120.995 432.569 137.813 425.482 139.413 431.406C141.152 437.85 123.942 450.514 112.85 445.992Z" fill="#92E3A9" stroke="#263238" stroke-miterlimit="10"/>
<path d="M112.85 445.991L129.8 435.473" stroke="#263238" stroke-width="0.5" stroke-miterlimit="10"/>
<path d="M107.78 420.589L120.224 407.43" stroke="#263238" stroke-width="2" stroke-miterlimit="10"/>
<path d="M116.443 411.374C116.443 411.374 116.082 405.557 121.393 400.808C124.587 397.952 141.405 390.864 143.005 396.789C144.744 403.231 127.534 415.896 116.443 411.374Z" fill="#92E3A9" stroke="#263238" stroke-miterlimit="10"/>
<path d="M116.443 411.374L133.392 400.855" stroke="#263238" stroke-width="0.5" stroke-miterlimit="10"/>
<path d="M113.046 369.838L125.49 356.678" stroke="#263238" stroke-width="2" stroke-miterlimit="10"/>
<path d="M121.709 360.621C121.709 360.621 121.348 354.804 126.659 350.056C129.853 347.2 146.671 340.113 148.271 346.037C150.01 352.479 132.8 365.144 121.709 360.621Z" fill="#92E3A9" stroke="#263238" stroke-miterlimit="10"/>
<path d="M121.708 360.622L138.658 350.104" stroke="#263238" stroke-width="0.5" stroke-miterlimit="10"/>
<path d="M115.763 337.254C115.763 337.254 115.403 331.437 120.714 326.689C123.908 323.833 140.726 316.745 142.326 322.67C144.065 329.111 126.854 341.777 115.763 337.254Z" fill="#92E3A9" stroke="#263238" stroke-miterlimit="10"/>
<path d="M115.763 337.255L132.713 326.736" stroke="#263238" stroke-width="0.5" stroke-miterlimit="10"/>
<path d="M116.459 338.007C116.459 338.007 110.636 337.756 106.471 331.977C103.964 328.501 98.6803 311.032 104.74 310.063C111.328 309.007 122.12 327.451 116.459 338.007Z" fill="#92E3A9" stroke="#263238" stroke-miterlimit="10"/>
<path d="M116.459 338.008L107.775 320.049" stroke="#263238" stroke-width="0.5" stroke-miterlimit="10"/>
<path d="M84.3879 231.549V564.404" stroke="#263238" stroke-width="2" stroke-miterlimit="10"/>
<path d="M84.653 514.357L73.634 499.982" stroke="#263238" stroke-width="2" stroke-miterlimit="10"/>
<path d="M76.9878 504.294C76.9878 504.294 77.9454 498.544 73.1545 493.273C70.2713 490.103 54.2753 481.318 52.0727 487.045C49.6765 493.275 65.4879 507.647 76.9878 504.294Z" fill="#92E3A9" stroke="#263238" stroke-miterlimit="10"/>
<path d="M76.9878 504.293L62.0953 492.705" stroke="#263238" stroke-width="0.5" stroke-miterlimit="10"/>
<path d="M84.653 451.802L73.634 437.428" stroke="#263238" stroke-width="2" stroke-miterlimit="10"/>
<path d="M76.9878 441.741C76.9878 441.741 77.9454 435.991 73.1545 430.721C70.2713 427.55 54.2753 418.765 52.0727 424.492C49.6765 430.721 65.4879 445.095 76.9878 441.741Z" fill="#92E3A9" stroke="#263238" stroke-miterlimit="10"/>
<path d="M76.9878 441.742L62.0953 430.154" stroke="#263238" stroke-width="0.5" stroke-miterlimit="10"/>
<path d="M84.653 378.363L73.634 363.99" stroke="#263238" stroke-width="2" stroke-miterlimit="10"/>
<path d="M76.9878 368.302C76.9878 368.302 77.9454 362.552 73.1545 357.281C70.2713 354.11 54.2753 345.325 52.0727 351.053C49.6765 357.281 65.4879 371.655 76.9878 368.302Z" fill="#92E3A9" stroke="#263238" stroke-miterlimit="10"/>
<path d="M76.9878 368.301L62.0953 356.713" stroke="#263238" stroke-width="0.5" stroke-miterlimit="10"/>
<path d="M84.653 329.474L73.634 315.102" stroke="#263238" stroke-width="2" stroke-miterlimit="10"/>
<path d="M76.9878 319.413C76.9878 319.413 77.9454 313.663 73.1545 308.392C70.2713 305.222 54.2753 296.437 52.0727 302.164C49.6765 308.394 65.4879 322.767 76.9878 319.413Z" fill="#92E3A9" stroke="#263238" stroke-miterlimit="10"/>
<path d="M76.9878 319.412L62.0953 307.824" stroke="#263238" stroke-width="0.5" stroke-miterlimit="10"/>
<path d="M84.653 280.372L73.634 265.998" stroke="#263238" stroke-width="2" stroke-miterlimit="10"/>
<path d="M76.9878 270.311C76.9878 270.311 77.9454 264.561 73.1545 259.291C70.2713 256.12 54.2753 247.335 52.0727 253.063C49.6765 259.291 65.4879 273.665 76.9878 270.311Z" fill="#92E3A9" stroke="#263238" stroke-miterlimit="10"/>
<path d="M76.9878 270.311L62.0953 258.723" stroke="#263238" stroke-width="0.5" stroke-miterlimit="10"/>
<path d="M84.4103 533.455L95.4307 519.082" stroke="#263238" stroke-width="2" stroke-miterlimit="10"/>
<path d="M92.0754 523.393C92.0754 523.393 91.1178 517.643 95.9087 512.373C98.7919 509.202 114.788 500.417 116.991 506.145C119.387 512.374 103.575 526.747 92.0754 523.393Z" fill="#92E3A9" stroke="#263238" stroke-miterlimit="10"/>
<path d="M92.0754 523.394L107.85 511.184" stroke="#263238" stroke-width="0.5" stroke-miterlimit="10"/>
<path d="M84.4103 433.97L95.4307 419.596" stroke="#263238" stroke-width="2" stroke-miterlimit="10"/>
<path d="M92.0754 423.909C92.0754 423.909 91.1178 418.159 95.9087 412.889C98.7919 409.718 114.788 400.933 116.991 406.66C119.387 412.888 103.575 427.263 92.0754 423.909Z" fill="#92E3A9" stroke="#263238" stroke-miterlimit="10"/>
<path d="M92.0754 423.909L107.85 411.697" stroke="#263238" stroke-width="0.5" stroke-miterlimit="10"/>
<path d="M84.4103 384.87L95.4307 370.496" stroke="#263238" stroke-width="2" stroke-miterlimit="10"/>
<path d="M92.0754 374.807C92.0754 374.807 91.1178 369.057 95.9087 363.787C98.7919 360.616 114.788 351.831 116.991 357.559C119.387 363.788 103.575 378.161 92.0754 374.807Z" fill="#92E3A9" stroke="#263238" stroke-miterlimit="10"/>
<path d="M92.0754 374.808L107.85 362.596" stroke="#263238" stroke-width="0.5" stroke-miterlimit="10"/>
<path d="M84.4103 319.968L95.4307 305.594" stroke="#263238" stroke-width="2" stroke-miterlimit="10"/>
<path d="M92.0754 309.906C92.0754 309.906 91.1178 304.156 95.9087 298.885C98.7919 295.715 114.788 286.93 116.991 292.656C119.387 298.885 103.575 313.26 92.0754 309.906Z" fill="#92E3A9" stroke="#263238" stroke-miterlimit="10"/>
<path d="M92.0754 309.907L107.85 297.695" stroke="#263238" stroke-width="0.5" stroke-miterlimit="10"/>
<path d="M84.4102 268.945L95.4306 254.57" stroke="#263238" stroke-width="2" stroke-miterlimit="10"/>
<path d="M92.0754 258.882C92.0754 258.882 91.1178 253.132 95.9087 247.861C98.7919 244.691 114.788 235.905 116.991 241.633C119.387 247.863 103.575 262.235 92.0754 258.882Z" fill="#92E3A9" stroke="#263238" stroke-miterlimit="10"/>
<path d="M92.0754 258.88L107.85 246.67" stroke="#263238" stroke-width="0.5" stroke-miterlimit="10"/>
<path d="M83.7505 236.253C83.7505 236.253 82.7914 230.503 87.5838 225.232C90.467 222.062 106.463 213.277 108.666 219.004C111.06 225.232 95.249 239.606 83.7505 236.253Z" fill="#92E3A9" stroke="#263238" stroke-miterlimit="10"/>
<path d="M83.7505 236.253L99.5231 224.041" stroke="#263238" stroke-width="0.5" stroke-miterlimit="10"/>
<path d="M84.5189 236.929C84.5189 236.929 78.7004 237.279 73.9616 231.961C71.1097 228.762 64.0522 211.932 69.9779 210.343C76.4249 208.614 89.0612 225.846 84.5189 236.929Z" fill="#92E3A9" stroke="#263238" stroke-miterlimit="10"/>
<path d="M84.5189 236.93L74.0302 219.965" stroke="#263238" stroke-width="0.5" stroke-miterlimit="10"/>
<path d="M98.0817 650.732H62.8311L58.4244 561.705H102.488L98.0817 650.732Z" fill="#263238" stroke="#263238" stroke-miterlimit="10"/>
<path d="M535.715 443.517C535.715 443.517 535.903 438.645 537.964 435.272C540.025 431.899 547.519 429.464 551.454 431.15C555.388 432.836 557.262 433.96 557.262 433.96C557.262 433.96 551.454 435.646 546.207 439.207C540.962 442.768 535.715 443.517 535.715 443.517Z" fill="#92E3A9"/>
<path d="M527.846 445.953C527.846 445.953 532.342 441.643 533.093 435.649C533.842 429.653 527.472 438.157 527.472 438.157C527.472 438.157 524.287 426.094 522.413 432.839C520.54 439.582 527.846 445.953 527.846 445.953Z" fill="#92E3A9"/>
<path d="M519.228 444.079C519.228 444.079 520.352 438.459 518.291 434.524C516.23 430.59 510.797 430.965 505.363 432.651C499.93 434.337 498.243 434.337 498.243 434.337C498.243 434.337 504.612 438.646 510.047 440.894C515.481 443.141 519.228 444.079 519.228 444.079Z" fill="#92E3A9"/>
<path d="M527.796 464.269C528.064 464.269 528.28 464.052 528.28 463.785V436.994C528.28 436.726 528.062 436.51 527.796 436.51C527.528 436.51 527.312 436.726 527.312 436.994V463.785C527.312 464.052 527.529 464.269 527.796 464.269Z" fill="#263238"/>
<path d="M525.547 464.27C525.569 464.27 525.592 464.268 525.614 464.265C525.879 464.23 526.064 463.984 526.026 463.72C525.934 463.049 523.67 447.176 515.983 438.361C515.807 438.159 515.5 438.139 515.298 438.315C515.097 438.491 515.076 438.798 515.252 438.999C522.747 447.592 525.045 463.69 525.067 463.853C525.102 464.094 525.31 464.27 525.547 464.27Z" fill="#263238"/>
<path d="M530.044 463.894H530.05C530.318 463.891 530.531 463.671 530.53 463.404C530.528 463.251 530.458 448 539.529 440.744C539.738 440.576 539.772 440.272 539.605 440.062C539.437 439.853 539.133 439.821 538.925 439.986C529.48 447.541 529.554 462.772 529.562 463.415C529.563 463.681 529.779 463.894 530.044 463.894Z" fill="#263238"/>
<path d="M522.551 463.706C522.592 463.706 522.635 463.7 522.676 463.689C522.933 463.619 523.087 463.354 523.017 463.095C522.963 462.893 521.648 458.09 518.632 453.944C518.476 453.726 518.172 453.68 517.956 453.837C517.74 453.993 517.693 454.297 517.849 454.513C520.76 458.516 522.069 463.299 522.083 463.347C522.141 463.564 522.336 463.706 522.551 463.706Z" fill="#263238"/>
<path d="M519.602 456.258C519.602 456.258 519.789 451.011 517.541 450.262C515.292 449.513 513.231 451.386 511.545 452.511C509.859 453.635 507.986 454.759 507.986 458.131C507.986 461.504 509.298 467.686 509.298 467.686C509.298 467.686 511.171 461.878 514.357 459.255C517.542 456.633 519.602 456.258 519.602 456.258Z" fill="#92E3A9"/>
<path d="M533.417 463.894C533.623 463.894 533.814 463.763 533.879 463.558C533.893 463.512 535.379 458.978 538.776 456.296C538.986 456.131 539.021 455.825 538.856 455.615C538.689 455.407 538.386 455.37 538.176 455.535C534.542 458.403 533.018 463.065 532.956 463.261C532.874 463.516 533.015 463.788 533.27 463.87C533.319 463.887 533.368 463.894 533.417 463.894Z" fill="#263238"/>
<path d="M535.715 457.944C535.715 457.944 534.966 454.571 536.84 452.136C538.713 449.701 543.209 450.262 545.458 452.885C547.707 455.507 550.891 463.376 550.891 463.376C550.891 463.376 546.395 459.817 541.148 459.817C535.903 459.817 535.715 457.944 535.715 457.944Z" fill="#92E3A9"/>
<path d="M520.786 492.613H535.739L543.215 467.883H513.308L520.786 492.613Z" fill="#263238" stroke="#263238" stroke-miterlimit="10" stroke-linecap="round" stroke-linejoin="round"/>
<path d="M513.224 467.883H543.3V463.783H513.224V467.883Z" fill="#263238" stroke="#263238" stroke-miterlimit="10" stroke-linecap="round" stroke-linejoin="round"/>
<g opacity="0.2">
<path d="M540.07 390C539.06 389.677 538.737 388.91 539.02 388.102L539.1 387.9C539.424 387.052 540.11 386.77 541.039 387.052C541.927 387.375 543.382 388.102 544.472 388.868C544.109 387.616 543.826 385.92 543.826 384.912C543.826 383.982 544.35 383.336 545.279 383.336H545.482C546.411 383.336 546.935 383.982 546.935 384.912C546.935 385.921 546.652 387.618 546.289 388.868C547.419 388.102 548.833 387.375 549.722 387.052C550.609 386.769 551.378 387.052 551.661 387.941L551.701 388.061C551.984 388.991 551.701 389.676 550.691 390C549.762 390.283 548.188 390.526 546.855 390.566C547.865 391.333 549.116 392.464 549.722 393.272C550.246 393.999 550.166 394.846 549.479 395.372L549.317 395.493C548.55 396.059 547.783 395.896 547.177 395.089C546.611 394.28 545.924 392.949 545.4 391.576C544.834 392.949 544.148 394.282 543.583 395.089C542.977 395.896 542.21 396.059 541.443 395.493L541.281 395.372C540.554 394.846 540.514 393.999 541.038 393.272C541.644 392.464 542.895 391.333 543.905 390.526C542.614 390.526 540.999 390.283 540.07 390Z" fill="black"/>
<path d="M555.172 390C554.163 389.677 553.84 388.91 554.122 388.102L554.203 387.9C554.526 387.052 555.213 386.77 556.142 387.052C557.029 387.375 558.485 388.102 559.575 388.868C559.211 387.616 558.928 385.92 558.928 384.912C558.928 383.982 559.453 383.336 560.382 383.336H560.584C561.514 383.336 562.038 383.982 562.038 384.912C562.038 385.921 561.755 387.618 561.392 388.868C562.522 388.102 563.935 387.375 564.824 387.052C565.712 386.769 566.48 387.052 566.762 387.941L566.802 388.061C567.085 388.991 566.802 389.676 565.792 390C564.863 390.283 563.289 390.526 561.956 390.566C562.966 391.333 564.217 392.464 564.824 393.272C565.348 393.999 565.268 394.846 564.581 395.372L564.419 395.493C563.652 396.059 562.885 395.896 562.279 395.089C561.713 394.28 561.027 392.949 560.502 391.576C559.937 392.949 559.25 394.282 558.686 395.089C558.079 395.896 557.312 396.059 556.546 395.493L556.385 395.372C555.658 394.846 555.618 393.999 556.142 393.272C556.748 392.464 557.999 391.333 559.009 390.526C557.716 390.526 556.1 390.283 555.172 390Z" fill="black"/>
<path d="M570.273 390C569.264 389.677 568.941 388.91 569.224 388.102L569.304 387.9C569.627 387.052 570.314 386.77 571.243 387.052C572.132 387.375 573.586 388.102 574.676 388.868C574.312 387.616 574.029 385.92 574.029 384.912C574.029 383.982 574.554 383.336 575.483 383.336H575.685C576.615 383.336 577.139 383.982 577.139 384.912C577.139 385.921 576.856 387.618 576.493 388.868C577.623 388.102 579.038 387.375 579.925 387.052C580.813 386.769 581.581 387.052 581.863 387.941L581.903 388.061C582.186 388.991 581.903 389.676 580.893 390C579.964 390.283 578.39 390.526 577.057 390.566C578.067 391.333 579.318 392.464 579.925 393.272C580.449 393.999 580.369 394.846 579.683 395.372L579.522 395.493C578.755 396.059 577.988 395.896 577.382 395.089C576.816 394.28 576.129 392.949 575.605 391.576C575.039 392.949 574.353 394.282 573.788 395.089C573.182 395.896 572.415 396.059 571.648 395.493L571.487 395.372C570.76 394.846 570.72 393.999 571.244 393.272C571.851 392.464 573.103 391.333 574.113 390.526C572.817 390.526 571.203 390.283 570.273 390Z" fill="black"/>
<path d="M585.374 390C584.365 389.677 584.042 388.91 584.325 388.102L584.405 387.9C584.728 387.052 585.415 386.77 586.344 387.052C587.232 387.375 588.687 388.102 589.777 388.868C589.413 387.616 589.13 385.92 589.13 384.912C589.13 383.982 589.655 383.336 590.584 383.336H590.786C591.716 383.336 592.24 383.982 592.24 384.912C592.24 385.921 591.957 387.618 591.594 388.868C592.724 388.102 594.137 387.375 595.026 387.052C595.914 386.769 596.682 387.052 596.965 387.941L597.005 388.061C597.288 388.991 597.005 389.676 595.996 390C595.066 390.283 593.491 390.526 592.159 390.566C593.169 391.333 594.422 392.464 595.028 393.272C595.552 393.999 595.472 394.846 594.785 395.372L594.624 395.493C593.857 396.059 593.09 395.896 592.484 395.089C591.918 394.28 591.232 392.949 590.707 391.576C590.142 392.949 589.455 394.282 588.891 395.089C588.284 395.896 587.517 396.059 586.75 395.493L586.588 395.372C585.861 394.846 585.821 393.999 586.345 393.272C586.952 392.464 588.203 391.333 589.212 390.526C587.92 390.526 586.304 390.283 585.374 390Z" fill="black"/>
<path d="M600.477 390C599.467 389.677 599.144 388.91 599.427 388.102L599.507 387.9C599.831 387.052 600.517 386.77 601.446 387.052C602.334 387.375 603.789 388.102 604.879 388.868C604.516 387.616 604.233 385.92 604.233 384.912C604.233 383.982 604.758 383.336 605.686 383.336H605.889C606.817 383.336 607.342 383.982 607.342 384.912C607.342 385.921 607.059 387.618 606.696 388.868C607.826 388.102 609.24 387.375 610.129 387.052C611.018 386.769 611.785 387.052 612.068 387.941L612.108 388.061C612.389 388.991 612.108 389.676 611.098 390C610.169 390.283 608.595 390.526 607.26 390.566C608.27 391.333 609.523 392.464 610.129 393.272C610.654 393.999 610.572 394.846 609.887 395.372L609.725 395.493C608.958 396.059 608.191 395.896 607.585 395.089C607.021 394.28 606.334 392.949 605.808 391.576C605.242 392.949 604.556 394.282 603.991 395.089C603.385 395.896 602.618 396.059 601.851 395.493L601.689 395.372C600.962 394.846 600.922 393.999 601.448 393.272C602.053 392.464 603.305 391.333 604.315 390.526C603.021 390.526 601.406 390.283 600.477 390Z" fill="black"/>
<path d="M615.579 390C614.57 389.677 614.247 388.91 614.529 388.102L614.61 387.9C614.933 387.052 615.62 386.77 616.549 387.052C617.436 387.375 618.891 388.102 619.982 388.868C619.618 387.616 619.335 385.92 619.335 384.912C619.335 383.982 619.861 383.336 620.789 383.336H620.991C621.919 383.336 622.445 383.982 622.445 384.912C622.445 385.921 622.162 387.618 621.798 388.868C622.929 388.102 624.342 387.375 625.231 387.052C626.12 386.769 626.887 387.052 627.17 387.941L627.21 388.061C627.492 388.991 627.21 389.676 626.201 390C625.271 390.283 623.697 390.526 622.364 390.566C623.373 391.333 624.625 392.464 625.231 393.272C625.757 393.999 625.675 394.846 624.99 395.372L624.828 395.493C624.061 396.059 623.294 395.896 622.688 395.089C622.123 394.28 621.437 392.949 620.911 391.576C620.345 392.949 619.658 394.282 619.094 395.089C618.488 395.896 617.721 396.059 616.954 395.493L616.792 395.372C616.065 394.846 616.025 393.999 616.55 393.272C617.155 392.464 618.407 391.333 619.419 390.526C618.123 390.526 616.509 390.283 615.579 390Z" fill="black"/>
<path d="M630.68 390C629.671 389.677 629.349 388.91 629.63 388.102L629.712 387.9C630.034 387.052 630.721 386.77 631.65 387.052C632.537 387.375 633.992 388.102 635.083 388.868C634.719 387.616 634.436 385.92 634.436 384.912C634.436 383.982 634.962 383.336 635.89 383.336H636.092C637.02 383.336 637.546 383.982 637.546 384.912C637.546 385.921 637.263 387.618 636.899 388.868C638.03 388.102 639.443 387.375 640.332 387.052C641.221 386.769 641.988 387.052 642.271 387.941L642.311 388.061C642.593 388.991 642.311 389.676 641.302 390C640.372 390.283 638.798 390.526 637.464 390.566C638.474 391.333 639.726 392.464 640.332 393.272C640.858 393.999 640.776 394.846 640.091 395.372L639.929 395.493C639.162 396.059 638.395 395.896 637.789 395.089C637.224 394.28 636.538 392.949 636.012 391.576C635.446 392.949 634.759 394.282 634.195 395.089C633.589 395.896 632.822 396.059 632.055 395.493L631.893 395.372C631.166 394.846 631.126 393.999 631.651 393.272C632.256 392.464 633.508 391.333 634.52 390.526C633.225 390.526 631.61 390.283 630.68 390Z" fill="black"/>
<path d="M645.781 390C644.772 389.677 644.45 388.91 644.731 388.102L644.813 387.9C645.135 387.052 645.821 386.77 646.751 387.052C647.638 387.375 649.093 388.102 650.183 388.868C649.82 387.616 649.537 385.92 649.537 384.912C649.537 383.982 650.063 383.336 650.991 383.336H651.193C652.121 383.336 652.647 383.982 652.647 384.912C652.647 385.921 652.364 387.618 652 388.868C653.131 388.102 654.544 387.375 655.433 387.052C656.322 386.769 657.089 387.052 657.372 387.941L657.412 388.061C657.694 388.991 657.412 389.676 656.403 390C655.473 390.283 653.899 390.526 652.565 390.566C653.575 391.333 654.827 392.464 655.433 393.272C655.959 393.999 655.877 394.846 655.192 395.372L655.03 395.493C654.263 396.059 653.496 395.896 652.889 395.089C652.325 394.28 651.639 392.949 651.113 391.576C650.547 392.949 649.86 394.282 649.296 395.089C648.69 395.896 647.923 396.059 647.156 395.493L646.994 395.372C646.267 394.846 646.227 393.999 646.752 393.272C647.357 392.464 648.609 391.333 649.621 390.526C648.326 390.526 646.711 390.283 645.781 390Z" fill="black"/>
</g>
<g opacity="0.2">
<path d="M243.002 55.6527C241.992 55.3295 241.669 54.5625 241.952 53.7554L242.032 53.5528C242.356 52.704 243.042 52.4225 243.972 52.704C244.859 53.0271 246.314 53.7539 247.404 54.5208C247.041 53.2684 246.758 51.5736 246.758 50.5639C246.758 49.6346 247.282 48.9883 248.211 48.9883H248.414C249.343 48.9883 249.867 49.6346 249.867 50.5639C249.867 51.5736 249.584 53.2699 249.221 54.5208C250.351 53.7539 251.765 53.0271 252.654 52.704C253.541 52.421 254.31 52.704 254.591 53.593L254.632 53.7137C254.914 54.643 254.632 55.328 253.622 55.6512C252.693 55.9341 251.118 56.1769 249.786 56.2171C250.795 56.9841 252.046 58.1159 252.654 58.9231C253.178 59.6498 253.098 60.4972 252.411 61.0229L252.249 61.145C251.482 61.7109 250.715 61.5486 250.109 60.7414C249.543 59.9328 248.856 58.6014 248.332 57.2283C247.766 58.6014 247.08 59.9343 246.515 60.7414C245.909 61.5486 245.142 61.7109 244.375 61.145L244.213 61.0229C243.486 60.4972 243.446 59.6498 243.97 58.9231C244.576 58.1159 245.827 56.9841 246.837 56.1769C245.546 56.1769 243.931 55.9356 243.002 55.6527Z" fill="black"/>
<path d="M258.105 55.6527C257.095 55.3295 256.772 54.5625 257.055 53.7554L257.135 53.5528C257.458 52.704 258.145 52.4225 259.074 52.704C259.962 53.0271 261.417 53.7539 262.507 54.5208C262.143 53.2684 261.86 51.5736 261.86 50.5639C261.86 49.6346 262.385 48.9883 263.314 48.9883H263.516C264.446 48.9883 264.97 49.6346 264.97 50.5639C264.97 51.5736 264.687 53.2699 264.324 54.5208C265.454 53.7539 266.867 53.0271 267.756 52.704C268.644 52.421 269.412 52.704 269.694 53.593L269.734 53.7137C270.017 54.643 269.734 55.328 268.724 55.6512C267.795 55.9341 266.219 56.1769 264.888 56.2171C265.898 56.9841 267.15 58.1159 267.756 58.9231C268.281 59.6498 268.2 60.4972 267.514 61.0229L267.351 61.145C266.584 61.7109 265.817 61.5486 265.211 60.7414C264.645 59.9328 263.959 58.6014 263.435 57.2283C262.869 58.6014 262.182 59.9343 261.618 60.7414C261.012 61.5486 260.245 61.7109 259.478 61.145L259.315 61.0229C258.589 60.4972 258.548 59.6498 259.073 58.9231C259.679 58.1159 260.93 56.9841 261.939 56.1769C260.648 56.1769 259.032 55.9356 258.105 55.6527Z" fill="black"/>
<path d="M273.205 55.6527C272.196 55.3295 271.873 54.5625 272.156 53.7554L272.236 53.5528C272.559 52.704 273.246 52.4225 274.173 52.704C275.063 53.0271 276.516 53.7539 277.606 54.5208C277.243 53.2684 276.96 51.5736 276.96 50.5639C276.96 49.6346 277.484 48.9883 278.413 48.9883H278.616C279.545 48.9883 280.069 49.6346 280.069 50.5639C280.069 51.5736 279.786 53.2699 279.423 54.5208C280.553 53.7539 281.967 53.0271 282.856 52.704C283.743 52.421 284.51 52.704 284.793 53.593L284.834 53.7137C285.117 54.643 284.834 55.328 283.824 55.6512C282.895 55.9341 281.32 56.1769 279.988 56.2171C280.997 56.9841 282.248 58.1159 282.856 58.9231C283.38 59.6498 283.3 60.4972 282.613 61.0229L282.451 61.145C281.684 61.7109 280.917 61.5486 280.311 60.7414C279.745 59.9328 279.058 58.6014 278.534 57.2283C277.968 58.6014 277.282 59.9343 276.717 60.7414C276.111 61.5486 275.344 61.7109 274.577 61.145L274.416 61.0229C273.689 60.4972 273.649 59.6498 274.173 58.9231C274.78 58.1159 276.032 56.9841 277.042 56.1769C275.749 56.1769 274.135 55.9356 273.205 55.6527Z" fill="black"/>
<path d="M288.307 55.6527C287.297 55.3295 286.974 54.5625 287.257 53.7554L287.337 53.5528C287.66 52.704 288.347 52.4225 289.276 52.704C290.164 53.0271 291.619 53.7539 292.709 54.5208C292.345 53.2684 292.062 51.5736 292.062 50.5639C292.062 49.6346 292.587 48.9883 293.516 48.9883H293.718C294.648 48.9883 295.172 49.6346 295.172 50.5639C295.172 51.5736 294.889 53.2699 294.526 54.5208C295.656 53.7539 297.071 53.0271 297.958 52.704C298.846 52.421 299.614 52.704 299.896 53.593L299.936 53.7137C300.219 54.643 299.936 55.328 298.926 55.6512C297.997 55.9341 296.421 56.1769 295.09 56.2171C296.1 56.9841 297.351 58.1159 297.957 58.9231C298.481 59.6498 298.401 60.4972 297.714 61.0229L297.553 61.145C296.786 61.7109 296.019 61.5486 295.413 60.7414C294.847 59.9328 294.161 58.6014 293.637 57.2283C293.071 58.6014 292.384 59.9343 291.82 60.7414C291.214 61.5486 290.447 61.7109 289.68 61.145L289.517 61.0229C288.791 60.4972 288.75 59.6498 289.275 58.9231C289.881 58.1159 291.132 56.9841 292.141 56.1769C290.852 56.1769 289.236 55.9356 288.307 55.6527Z" fill="black"/>
<path d="M303.409 55.6527C302.399 55.3295 302.076 54.5625 302.359 53.7554L302.439 53.5528C302.763 52.704 303.449 52.421 304.378 52.704C305.266 53.0271 306.721 53.7539 307.811 54.5208C307.448 53.2684 307.165 51.5736 307.165 50.5639C307.165 49.6346 307.691 48.9883 308.618 48.9883H308.821C309.749 48.9883 310.274 49.6346 310.274 50.5639C310.274 51.5736 309.991 53.2699 309.628 54.5208C310.758 53.7539 312.172 53.0271 313.061 52.704C313.95 52.421 314.717 52.704 315 53.593L315.04 53.7137C315.321 54.643 315.04 55.328 314.03 55.6512C313.101 55.9341 311.527 56.1769 310.193 56.2171C311.202 56.9841 312.455 58.1159 313.061 58.9231C313.587 59.6498 313.505 60.4972 312.82 61.0229L312.657 61.145C311.89 61.7109 311.123 61.5486 310.517 60.7414C309.953 59.9328 309.266 58.6014 308.74 57.2283C308.175 58.6014 307.488 59.9343 306.924 60.7414C306.317 61.5486 305.551 61.7109 304.784 61.145L304.621 61.0229C303.894 60.4972 303.854 59.6498 304.38 58.9231C304.985 58.1159 306.237 56.9841 307.247 56.1769C305.953 56.1769 304.338 55.9356 303.409 55.6527Z" fill="black"/>
<path d="M318.511 55.6527C317.502 55.3295 317.179 54.5625 317.461 53.7554L317.542 53.5528C317.865 52.704 318.552 52.4225 319.481 52.704C320.368 53.0271 321.823 53.7539 322.914 54.5208C322.55 53.2684 322.267 51.5736 322.267 50.5639C322.267 49.6346 322.793 48.9883 323.721 48.9883H323.923C324.851 48.9883 325.377 49.6346 325.377 50.5639C325.377 51.5736 325.094 53.2699 324.73 54.5208C325.861 53.7539 327.276 53.0271 328.163 52.704C329.052 52.421 329.819 52.704 330.102 53.593L330.142 53.7137C330.424 54.643 330.142 55.328 329.133 55.6512C328.203 55.9341 326.629 56.1769 325.296 56.2171C326.305 56.9841 327.559 58.1159 328.163 58.9231C328.689 59.6498 328.607 60.4972 327.922 61.0229L327.76 61.145C326.993 61.7109 326.226 61.5486 325.62 60.7414C325.055 59.9328 324.369 58.6014 323.843 57.2283C323.277 58.6014 322.59 59.9343 322.026 60.7414C321.42 61.5486 320.653 61.7109 319.886 61.145L319.724 61.0229C318.997 60.4972 318.957 59.6498 319.482 58.9231C320.087 58.1159 321.339 56.9841 322.351 56.1769C321.055 56.1769 319.441 55.9356 318.511 55.6527Z" fill="black"/>
<path d="M333.612 55.6527C332.603 55.3295 332.281 54.5625 332.563 53.7554L332.644 53.5528C332.966 52.704 333.653 52.4225 334.582 52.704C335.47 53.0271 336.925 53.7539 338.015 54.5208C337.651 53.2684 337.368 51.5736 337.368 50.5639C337.368 49.6346 337.894 48.9883 338.822 48.9883H339.024C339.952 48.9883 340.478 49.6346 340.478 50.5639C340.478 51.5736 340.195 53.2699 339.832 54.5208C340.962 53.7539 342.375 53.0271 343.264 52.704C344.153 52.421 344.92 52.704 345.203 53.593L345.244 53.7137C345.525 54.643 345.243 55.328 344.234 55.6512C343.304 55.9341 341.73 56.1769 340.396 56.2171C341.406 56.9841 342.658 58.1159 343.263 58.9231C343.789 59.6498 343.707 60.4972 343.022 61.0229L342.859 61.145C342.092 61.7109 341.325 61.5486 340.719 60.7414C340.155 59.9328 339.468 58.6014 338.942 57.2283C338.377 58.6014 337.69 59.9343 337.126 60.7414C336.519 61.5486 335.753 61.7109 334.986 61.145L334.823 61.0229C334.096 60.4972 334.056 59.6498 334.582 58.9231C335.187 58.1159 336.439 56.9841 337.449 56.1769C336.158 56.1769 334.542 55.9356 333.612 55.6527Z" fill="black"/>
<path d="M348.713 55.6527C347.704 55.3295 347.382 54.5625 347.664 53.7554L347.745 53.5528C348.067 52.704 348.754 52.4225 349.683 52.704C350.571 53.0271 352.026 53.7539 353.116 54.5208C352.752 53.2684 352.469 51.5736 352.469 50.5639C352.469 49.6346 352.995 48.9883 353.923 48.9883H354.125C355.053 48.9883 355.579 49.6346 355.579 50.5639C355.579 51.5736 355.296 53.2699 354.933 54.5208C356.063 53.7539 357.478 53.0271 358.365 52.704C359.254 52.421 360.021 52.704 360.304 53.593L360.344 53.7137C360.626 54.643 360.344 55.328 359.335 55.6512C358.405 55.9341 356.831 56.1769 355.497 56.2171C356.507 56.9841 357.759 58.1159 358.365 58.9231C358.891 59.6498 358.809 60.4972 358.124 61.0229L357.962 61.145C357.195 61.7109 356.428 61.5486 355.822 60.7414C355.257 59.9328 354.571 58.6014 354.045 57.2283C353.479 58.6014 352.792 59.9343 352.228 60.7414C351.622 61.5486 350.855 61.7109 350.088 61.145L349.926 61.0229C349.199 60.4972 349.159 59.6498 349.684 58.9231C350.289 58.1159 351.541 56.9841 352.551 56.1769C351.259 56.1769 349.643 55.9356 348.713 55.6527Z" fill="black"/>
</g>
<g opacity="0.2">
<path d="M369.408 527.153C368.398 526.83 368.075 526.063 368.358 525.255L368.439 525.053C368.762 524.204 369.448 523.922 370.377 524.204C371.265 524.527 372.72 525.254 373.81 526.021C373.447 524.768 373.164 523.072 373.164 522.064C373.164 521.135 373.688 520.488 374.617 520.488H374.82C375.749 520.488 376.273 521.135 376.273 522.064C376.273 523.074 375.991 524.77 375.627 526.021C376.757 525.254 378.171 524.527 379.06 524.204C379.947 523.921 380.716 524.204 380.997 525.093L381.038 525.214C381.321 526.143 381.038 526.828 380.028 527.151C379.099 527.434 377.524 527.677 376.192 527.717C377.201 528.484 378.452 529.616 379.06 530.423C379.584 531.15 379.504 531.997 378.817 532.523L378.655 532.644C377.888 533.209 377.121 533.047 376.515 532.24C375.949 531.431 375.262 530.1 374.738 528.727C374.172 530.1 373.486 531.433 372.921 532.24C372.315 533.047 371.548 533.209 370.781 532.644L370.619 532.523C369.892 531.997 369.852 531.15 370.376 530.423C370.982 529.614 372.233 528.484 373.243 527.677C371.952 527.678 370.336 527.436 369.408 527.153Z" fill="black"/>
<path d="M384.509 527.153C383.499 526.83 383.176 526.063 383.459 525.255L383.54 525.053C383.863 524.204 384.549 523.922 385.479 524.204C386.366 524.527 387.821 525.254 388.911 526.021C388.548 524.768 388.265 523.072 388.265 522.064C388.265 521.135 388.789 520.488 389.718 520.488H389.921C390.85 520.488 391.374 521.135 391.374 522.064C391.374 523.074 391.092 524.77 390.728 526.021C391.858 525.254 393.273 524.527 394.161 524.204C395.048 523.921 395.817 524.204 396.098 525.093L396.139 525.214C396.422 526.143 396.139 526.828 395.129 527.151C394.2 527.434 392.625 527.677 391.293 527.717C392.302 528.484 393.553 529.616 394.161 530.423C394.685 531.15 394.605 531.997 393.918 532.523L393.757 532.644C392.99 533.209 392.223 533.047 391.617 532.24C391.051 531.431 390.365 530.1 389.841 528.727C389.275 530.1 388.588 531.433 388.024 532.24C387.418 533.047 386.651 533.209 385.884 532.644L385.723 532.523C384.996 531.997 384.956 531.15 385.48 530.423C386.086 529.614 387.337 528.484 388.347 527.677C387.054 527.678 385.438 527.436 384.509 527.153Z" fill="black"/>
<path d="M399.611 527.153C398.602 526.83 398.279 526.063 398.562 525.255L398.642 525.053C398.965 524.204 399.652 523.922 400.579 524.204C401.469 524.527 402.922 525.254 404.012 526.021C403.649 524.768 403.366 523.072 403.366 522.064C403.366 521.135 403.89 520.488 404.819 520.488H405.022C405.951 520.488 406.475 521.135 406.475 522.064C406.475 523.074 406.192 524.77 405.829 526.021C406.959 525.254 408.373 524.527 409.262 524.204C410.149 523.921 410.918 524.204 411.201 525.093L411.241 525.214C411.524 526.143 411.241 526.828 410.231 527.151C409.302 527.434 407.728 527.677 406.395 527.717C407.405 528.484 408.657 529.616 409.263 530.423C409.788 531.15 409.707 531.997 409.021 532.523L408.858 532.644C408.091 533.209 407.324 533.047 406.718 532.24C406.152 531.431 405.466 530.1 404.942 528.727C404.376 530.1 403.689 531.433 403.125 532.24C402.519 533.047 401.752 533.209 400.985 532.644L400.824 532.523C400.097 531.997 400.057 531.15 400.581 530.423C401.187 529.614 402.44 528.484 403.449 527.677C402.155 527.678 400.539 527.436 399.611 527.153Z" fill="black"/>
<path d="M414.712 527.153C413.703 526.83 413.38 526.063 413.663 525.255L413.743 525.053C414.066 524.204 414.753 523.922 415.682 524.204C416.57 524.527 418.025 525.254 419.115 526.021C418.751 524.768 418.468 523.072 418.468 522.064C418.468 521.135 418.993 520.488 419.922 520.488H420.124C421.054 520.488 421.578 521.135 421.578 522.064C421.578 523.074 421.295 524.77 420.932 526.021C422.062 525.254 423.475 524.527 424.364 524.204C425.252 523.921 426.02 524.204 426.302 525.093L426.342 525.214C426.625 526.143 426.342 526.828 425.332 527.151C424.403 527.434 422.829 527.677 421.496 527.717C422.506 528.484 423.757 529.616 424.364 530.423C424.888 531.15 424.808 531.997 424.122 532.523L423.961 532.644C423.194 533.209 422.427 533.047 421.821 532.24C421.255 531.431 420.568 530.1 420.044 528.727C419.478 530.1 418.791 531.433 418.227 532.24C417.621 533.047 416.854 533.209 416.087 532.644L415.925 532.523C415.198 531.997 415.158 531.15 415.682 530.423C416.288 529.614 417.539 528.484 418.549 527.677C417.256 527.678 415.64 527.436 414.712 527.153Z" fill="black"/>
<path d="M429.814 527.153C428.804 526.83 428.481 526.063 428.764 525.255L428.844 525.053C429.167 524.204 429.854 523.922 430.783 524.204C431.671 524.527 433.124 525.254 434.216 526.021C433.852 524.768 433.569 523.072 433.569 522.064C433.569 521.135 434.095 520.488 435.023 520.488H435.225C436.153 520.488 436.679 521.135 436.679 522.064C436.679 523.074 436.396 524.77 436.033 526.021C437.163 525.254 438.576 524.527 439.465 524.204C440.354 523.921 441.121 524.204 441.404 525.093L441.445 525.214C441.726 526.143 441.445 526.828 440.435 527.151C439.506 527.434 437.931 527.677 436.597 527.717C437.607 528.484 438.859 529.616 439.465 530.423C439.991 531.15 439.909 531.997 439.224 532.523L439.062 532.644C438.295 533.209 437.528 533.047 436.922 532.24C436.357 531.431 435.671 530.1 435.145 528.727C434.579 530.1 433.893 531.433 433.328 532.24C432.722 533.047 431.955 533.209 431.188 532.644L431.026 532.523C430.299 531.997 430.259 531.15 430.785 530.423C431.389 529.614 432.642 528.484 433.651 527.677C432.359 527.678 430.744 527.436 429.814 527.153Z" fill="black"/>
<path d="M444.916 527.153C443.906 526.83 443.585 526.063 443.866 525.255L443.946 525.053C444.27 524.204 444.956 523.922 445.885 524.204C446.773 524.527 448.228 525.254 449.318 526.021C448.955 524.768 448.672 523.072 448.672 522.064C448.672 521.135 449.198 520.488 450.125 520.488H450.328C451.256 520.488 451.781 521.135 451.781 522.064C451.781 523.074 451.498 524.77 451.135 526.021C452.265 525.254 453.679 524.527 454.568 524.204C455.457 523.921 456.224 524.204 456.507 525.093L456.547 525.214C456.828 526.143 456.547 526.828 455.537 527.151C454.608 527.434 453.034 527.677 451.701 527.717C452.709 528.484 453.962 529.616 454.568 530.423C455.093 531.15 455.012 531.997 454.327 532.523L454.164 532.644C453.397 533.209 452.63 533.047 452.024 532.24C451.46 531.431 450.773 530.1 450.247 528.727C449.682 530.1 448.995 531.433 448.431 532.24C447.824 533.047 447.057 533.209 446.29 532.644L446.128 532.523C445.401 531.997 445.361 531.15 445.887 530.423C446.492 529.614 447.744 528.484 448.755 527.677C447.461 527.678 445.845 527.436 444.916 527.153Z" fill="black"/>
<path d="M460.018 527.153C459.009 526.83 458.685 526.063 458.968 525.255L459.05 525.053C459.372 524.204 460.059 523.922 460.988 524.204C461.875 524.527 463.33 525.254 464.421 526.021C464.057 524.768 463.774 523.072 463.774 522.064C463.774 521.135 464.3 520.488 465.228 520.488H465.43C466.358 520.488 466.884 521.135 466.884 522.064C466.884 523.074 466.601 524.77 466.237 526.021C467.368 525.254 468.781 524.527 469.67 524.204C470.559 523.921 471.326 524.204 471.609 525.093L471.649 525.214C471.931 526.143 471.649 526.828 470.64 527.151C469.71 527.434 468.135 527.677 466.802 527.717C467.812 528.484 469.064 529.616 469.669 530.423C470.194 531.15 470.112 531.997 469.427 532.523L469.265 532.644C468.498 533.209 467.731 533.047 467.125 532.24C466.561 531.431 465.874 530.1 465.348 528.727C464.782 530.1 464.096 531.433 463.532 532.24C462.925 533.047 462.158 533.209 461.391 532.644L461.229 532.523C460.502 531.997 460.462 531.15 460.988 530.423C461.593 529.614 462.845 528.484 463.856 527.677C462.562 527.678 460.948 527.436 460.018 527.153Z" fill="black"/>
<path d="M475.119 527.153C474.11 526.83 473.787 526.063 474.07 525.255L474.151 525.053C474.473 524.204 475.16 523.922 476.09 524.204C476.978 524.527 478.433 525.254 479.523 526.021C479.16 524.768 478.877 523.072 478.877 522.064C478.877 521.135 479.403 520.488 480.33 520.488H480.533C481.461 520.488 481.986 521.135 481.986 522.064C481.986 523.074 481.703 524.77 481.34 526.021C482.47 525.254 483.884 524.527 484.773 524.204C485.662 523.921 486.429 524.204 486.712 525.093L486.752 525.214C487.033 526.143 486.752 526.828 485.742 527.151C484.813 527.434 483.239 527.677 481.904 527.717C482.914 528.484 484.167 529.616 484.773 530.423C485.298 531.15 485.217 531.997 484.531 532.523L484.369 532.644C483.602 533.209 482.835 533.047 482.229 532.24C481.665 531.431 480.978 530.1 480.452 528.727C479.887 530.1 479.2 531.433 478.636 532.24C478.029 533.047 477.262 533.209 476.495 532.644L476.333 532.523C475.606 531.997 475.566 531.15 476.092 530.423C476.697 529.614 477.949 528.484 478.959 527.677C477.663 527.678 476.049 527.436 475.119 527.153Z" fill="black"/>
</g>
<g opacity="0.2">
<path d="M610.276 453.881V443.281C610.276 436.743 615.709 431.425 622.385 431.425C629.063 431.425 634.494 436.743 634.494 443.281V453.81H639.322V443.281C639.322 434.138 631.724 426.699 622.385 426.699C613.046 426.699 605.448 434.138 605.448 443.281V453.881H610.276Z" stroke="black" stroke-miterlimit="10"/>
<path d="M640.636 453.906H603.655V484.497H640.636V453.906Z" stroke="black" stroke-miterlimit="10"/>
<path d="M625.991 466.612C625.991 464.435 624.189 462.67 621.964 462.67C619.74 462.67 617.938 464.435 617.938 466.612C617.938 468.112 618.793 469.415 620.053 470.082L619.377 477.029H624.554L623.877 470.082C625.136 469.415 625.991 468.11 625.991 466.612Z" stroke="black" stroke-miterlimit="10"/>
</g>
<g opacity="0.2">
<path d="M86.3732 121.184V110.583C86.3732 104.045 91.806 98.7273 98.4823 98.7273C105.159 98.7273 110.591 104.045 110.591 110.583V121.112H115.42V110.583C115.42 101.439 107.821 94.002 98.4823 94.002C89.1432 94.002 81.545 101.441 81.545 110.583V121.184H86.3732Z" stroke="black" stroke-miterlimit="10"/>
<path d="M116.733 121.209H79.752V151.8H116.733V121.209Z" stroke="black" stroke-miterlimit="10"/>
<path d="M102.088 133.913C102.088 131.735 100.286 129.971 98.0623 129.971C95.8388 129.971 94.0369 131.735 94.0369 133.913C94.0369 135.412 94.8917 136.716 96.1516 137.383L95.4755 144.33H100.652L99.976 137.383C101.233 136.716 102.088 135.412 102.088 133.913Z" stroke="black" stroke-miterlimit="10"/>
</g>
<g opacity="0.2">
<path d="M548.054 41.0379V34.0816C548.054 29.7911 551.619 26.3018 556.001 26.3018C560.382 26.3018 563.947 29.7911 563.947 34.0816V40.9903H567.115V34.0816C567.115 28.0814 562.129 23.2012 556.001 23.2012C549.872 23.2012 544.886 28.0829 544.886 34.0816V41.0379H548.054Z" stroke="black" stroke-miterlimit="10"/>
<path d="M567.976 41.0566H543.708V61.1302H567.976V41.0566Z" stroke="black" stroke-miterlimit="10"/>
<path d="M558.365 49.3915C558.365 47.9633 557.183 46.8047 555.723 46.8047C554.264 46.8047 553.082 47.9633 553.082 49.3915C553.082 50.3759 553.643 51.2307 554.47 51.6686L554.026 56.2272H557.423L556.979 51.6686C557.804 51.2307 558.365 50.3759 558.365 49.3915Z" stroke="black" stroke-miterlimit="10"/>
</g>
<path d="M619.273 102.766H145.277V354.514H619.273V102.766Z" fill="white" stroke="#263238" stroke-miterlimit="10" stroke-linecap="round" stroke-linejoin="round"/>
<path d="M619.271 102.766H227.882V126.367H619.271V102.766Z" fill="#D9D9D9" stroke="#263238" stroke-miterlimit="10" stroke-linecap="round" stroke-linejoin="round"/>
<path d="M619.273 102.766H310.886V126.367H619.273V102.766Z" fill="#A8A8A8" stroke="#263238" stroke-miterlimit="10" stroke-linecap="round" stroke-linejoin="round"/>
<path d="M619.273 79.709H144.883V103.311H619.273V79.709Z" fill="#263238" stroke="#263238" stroke-miterlimit="10" stroke-linecap="round" stroke-linejoin="round"/>
<path d="M474.229 96.1697H165.784C162.967 96.1697 160.682 93.8851 160.682 91.0675C160.682 88.2498 162.967 85.9668 165.784 85.9668H474.23C477.048 85.9668 479.332 88.2513 479.332 91.0675C479.331 93.8866 477.046 96.1697 474.229 96.1697Z" fill="#A8A8A8" stroke="#263238" stroke-miterlimit="10" stroke-linecap="round" stroke-linejoin="round"/>
<path d="M567.329 96.0411C569.7 96.0411 571.621 94.1195 571.621 91.7491C571.621 89.3786 569.7 87.457 567.329 87.457C564.959 87.457 563.037 89.3786 563.037 91.7491C563.037 94.1195 564.959 96.0411 567.329 96.0411Z" fill="white" stroke="#263238" stroke-miterlimit="10" stroke-linecap="round" stroke-linejoin="round"/>
<path d="M589.506 91.7491C589.506 89.3782 587.585 87.457 585.214 87.457C582.843 87.457 580.922 89.3782 580.922 91.7491C580.922 94.1199 582.843 96.0411 585.214 96.0411C587.585 96.0426 589.506 94.1199 589.506 91.7491Z" fill="white" stroke="#263238" stroke-miterlimit="10" stroke-linecap="round" stroke-linejoin="round"/>
<path d="M603.098 96.0411C605.468 96.0411 607.39 94.1195 607.39 91.7491C607.39 89.3786 605.468 87.457 603.098 87.457C600.728 87.457 598.806 89.3786 598.806 91.7491C598.806 94.1195 600.728 96.0411 603.098 96.0411Z" fill="white" stroke="#263238" stroke-miterlimit="10" stroke-linecap="round" stroke-linejoin="round"/>
<path d="M175.902 203.561H228.598V167.795H198.012L194.905 159.062H175.902V203.561Z" fill="#D9D9D9" stroke="#B5B5B5" stroke-miterlimit="10"/>
<path d="M175.902 272.645H228.598V236.877H198.012L194.905 228.145H175.902V272.645Z" fill="#D9D9D9" stroke="#B5B5B5" stroke-miterlimit="10"/>
<path d="M175.902 341.731H228.598V305.965H198.012L194.905 297.23H175.902V341.731Z" fill="#D9D9D9" stroke="#B5B5B5" stroke-miterlimit="10"/>
<path d="M249.12 203.561H301.817V167.795H271.229L268.123 159.062H249.12V203.561Z" fill="#D9D9D9" stroke="#B5B5B5" stroke-miterlimit="10"/>
<path d="M249.12 272.645H301.817V236.877H271.229L268.123 228.145H249.12V272.645Z" fill="#D9D9D9" stroke="#B5B5B5" stroke-miterlimit="10"/>
<path d="M249.12 341.731H301.817V305.965H271.229L268.123 297.23H249.12V341.731Z" fill="#D9D9D9" stroke="#B5B5B5" stroke-miterlimit="10"/>
<path d="M322.339 203.561H375.034V167.795H344.447L341.34 159.062H322.339V203.561Z" fill="#D9D9D9" stroke="#B5B5B5" stroke-miterlimit="10"/>
<path d="M322.339 272.645H375.034V236.877H344.447L341.34 228.145H322.339V272.645Z" fill="#D9D9D9" stroke="#B5B5B5" stroke-miterlimit="10"/>
<path d="M322.339 341.731H375.034V305.965H344.447L341.34 297.23H322.339V341.731Z" fill="#D9D9D9" stroke="#B5B5B5" stroke-miterlimit="10"/>
<path d="M395.556 203.561H448.252V167.795H417.666L414.559 159.062H395.556V203.561Z" fill="#D9D9D9" stroke="#B5B5B5" stroke-miterlimit="10"/>
<path d="M395.556 272.645H448.252V236.877H417.666L414.559 228.145H395.556V272.645Z" fill="#D9D9D9" stroke="#B5B5B5" stroke-miterlimit="10"/>
<path d="M395.556 341.731H448.252V305.965H417.666L414.559 297.23H395.556V341.731Z" fill="#D9D9D9" stroke="#B5B5B5" stroke-miterlimit="10"/>
<path d="M468.774 203.561H521.469V167.795H490.883L487.777 159.062H468.774V203.561Z" fill="#D9D9D9" stroke="#B5B5B5" stroke-miterlimit="10"/>
<path d="M468.774 272.645H521.469V236.877H490.883L487.777 228.145H468.774V272.645Z" fill="#D9D9D9" stroke="#B5B5B5" stroke-miterlimit="10"/>
<path d="M468.774 341.731H521.469V305.965H490.883L487.777 297.23H468.774V341.731Z" fill="#D9D9D9" stroke="#B5B5B5" stroke-miterlimit="10"/>
<path d="M541.991 203.561H594.688V167.795H564.101L560.994 159.062H541.991V203.561Z" fill="#D9D9D9" stroke="#B5B5B5" stroke-miterlimit="10"/>
<path d="M541.991 272.645H594.688V236.877H564.101L560.994 228.145H541.991V272.645Z" fill="#D9D9D9" stroke="#B5B5B5" stroke-miterlimit="10"/>
<path d="M541.991 341.731H594.688V305.965H564.101L560.994 297.23H541.991V341.731Z" fill="#D9D9D9" stroke="#B5B5B5" stroke-miterlimit="10"/>
<path opacity="0.3" d="M470.979 152.494H281.094V320.041H470.979V152.494Z" fill="black"/>
<path d="M475.731 143.939H285.846V311.486H475.731V143.939Z" fill="white" stroke="#263238" stroke-miterlimit="10" stroke-linecap="round" stroke-linejoin="round"/>
<path d="M475.731 143.939H285.846V155.907H475.731V143.939Z" fill="#263238" stroke="#263238" stroke-miterlimit="10" stroke-linecap="round" stroke-linejoin="round"/>
<path d="M368.92 215.678V198.019C368.92 191.481 374.352 186.163 381.029 186.163C387.706 186.163 393.138 191.481 393.138 198.019V208.336H397.966V198.019C397.966 188.876 390.368 181.438 381.029 181.438C371.69 181.438 364.091 188.876 364.091 198.019V215.678H368.92Z" fill="white" stroke="#263238" stroke-miterlimit="10" stroke-linecap="round" stroke-linejoin="round"/>
<path d="M399.279 213.963H362.298V244.554H399.279V213.963Z" fill="#92E3A9" stroke="#263238" stroke-miterlimit="10" stroke-linecap="round" stroke-linejoin="round"/>
<path d="M404.551 202.737L406.949 197.258" stroke="#263238" stroke-miterlimit="10" stroke-linecap="round" stroke-linejoin="round"/>
<path d="M404.894 209.244H413.798" stroke="#263238" stroke-miterlimit="10" stroke-linecap="round" stroke-linejoin="round"/>
<path d="M403.866 215.408L408.662 220.546" stroke="#263238" stroke-miterlimit="10" stroke-linecap="round" stroke-linejoin="round"/>
<path d="M384.634 226.665C384.634 224.487 382.832 222.723 380.609 222.723C378.385 222.723 376.583 224.487 376.583 226.665C376.583 228.164 377.438 229.467 378.698 230.135L378.022 237.082H383.198L382.522 230.135C383.779 229.467 384.634 228.164 384.634 226.665Z" fill="#263238" stroke="#263238" stroke-miterlimit="10" stroke-linecap="round" stroke-linejoin="round"/>
<path d="M446.993 283.058H314.583C311.293 283.058 308.626 280.39 308.626 277.101V262.971C308.626 259.681 311.293 257.014 314.583 257.014H446.993C450.283 257.014 452.95 259.681 452.95 262.971V277.101C452.95 280.392 450.285 283.058 446.993 283.058Z" fill="white" stroke="#263238" stroke-miterlimit="10" stroke-linecap="round" stroke-linejoin="round"/>
<path d="M322.64 270.86C321.63 270.537 321.307 269.77 321.59 268.961L321.67 268.76C321.993 267.911 322.68 267.63 323.609 267.911C324.497 268.234 325.952 268.961 327.042 269.728C326.678 268.475 326.395 266.779 326.395 265.771C326.395 264.842 326.92 264.195 327.849 264.195H328.051C328.981 264.195 329.505 264.842 329.505 265.771C329.505 266.781 329.222 268.477 328.859 269.728C329.989 268.961 331.402 268.234 332.291 267.911C333.179 267.628 333.947 267.911 334.229 268.8L334.269 268.921C334.552 269.85 334.269 270.535 333.259 270.86C332.33 271.143 330.756 271.385 329.423 271.426C330.433 272.193 331.685 273.323 332.291 274.132C332.816 274.858 332.735 275.706 332.049 276.231L331.886 276.352C331.119 276.918 330.352 276.756 329.746 275.948C329.18 275.14 328.494 273.808 327.97 272.435C327.404 273.808 326.717 275.141 326.153 275.948C325.547 276.756 324.78 276.918 324.013 276.352L323.852 276.231C323.125 275.706 323.085 274.858 323.609 274.132C324.215 273.323 325.466 272.193 326.476 271.385C325.183 271.385 323.569 271.143 322.64 270.86Z" fill="#263238"/>
<path d="M337.742 270.86C336.732 270.537 336.409 269.77 336.692 268.961L336.772 268.76C337.096 267.911 337.782 267.63 338.711 267.911C339.599 268.234 341.054 268.961 342.144 269.728C341.781 268.475 341.498 266.779 341.498 265.771C341.498 264.842 342.022 264.195 342.951 264.195H343.154C344.083 264.195 344.607 264.842 344.607 265.771C344.607 266.781 344.324 268.477 343.961 269.728C345.091 268.961 346.506 268.234 347.394 267.911C348.281 267.628 349.05 267.911 349.331 268.8L349.372 268.921C349.655 269.85 349.372 270.535 348.362 270.86C347.433 271.143 345.857 271.385 344.526 271.426C345.535 272.193 346.788 273.323 347.394 274.132C347.918 274.858 347.838 275.706 347.151 276.231L346.989 276.352C346.222 276.918 345.455 276.756 344.849 275.948C344.283 275.14 343.596 273.808 343.072 272.435C342.506 273.808 341.82 275.141 341.255 275.948C340.649 276.756 339.882 276.918 339.115 276.352L338.954 276.231C338.227 275.706 338.187 274.858 338.711 274.132C339.318 273.323 340.569 272.193 341.578 271.385C340.286 271.385 338.67 271.143 337.742 270.86Z" fill="#263238"/>
<path d="M352.843 270.86C351.833 270.537 351.51 269.77 351.793 268.961L351.874 268.76C352.197 267.911 352.883 267.63 353.811 267.911C354.7 268.234 356.154 268.961 357.244 269.728C356.88 268.475 356.597 266.779 356.597 265.771C356.597 264.842 357.122 264.195 358.051 264.195H358.253C359.183 264.195 359.707 264.842 359.707 265.771C359.707 266.781 359.424 268.477 359.061 269.728C360.191 268.961 361.604 268.234 362.493 267.911C363.381 267.628 364.149 267.911 364.432 268.8L364.473 268.921C364.756 269.85 364.473 270.535 363.463 270.86C362.534 271.143 360.959 271.385 359.627 271.426C360.636 272.193 361.887 273.323 362.495 274.132C363.019 274.858 362.939 275.706 362.252 276.231L362.091 276.352C361.324 276.918 360.557 276.756 359.951 275.948C359.385 275.14 358.699 273.808 358.175 272.435C357.609 273.808 356.922 275.141 356.358 275.948C355.752 276.756 354.985 276.918 354.218 276.352L354.057 276.231C353.33 275.706 353.29 274.858 353.814 274.132C354.42 273.323 355.673 272.193 356.682 271.385C355.387 271.385 353.772 271.143 352.843 270.86Z" fill="#263238"/>
<path d="M367.944 270.86C366.934 270.537 366.611 269.77 366.894 268.961L366.975 268.76C367.298 267.911 367.984 267.63 368.914 267.911C369.801 268.234 371.256 268.961 372.346 269.728C371.983 268.475 371.7 266.779 371.7 265.771C371.7 264.842 372.224 264.195 373.153 264.195H373.356C374.285 264.195 374.809 264.842 374.809 265.771C374.809 266.781 374.527 268.477 374.163 269.728C375.293 268.961 376.707 268.234 377.596 267.911C378.483 267.628 379.252 267.911 379.535 268.8L379.575 268.921C379.858 269.85 379.575 270.535 378.565 270.86C377.636 271.143 376.06 271.385 374.729 271.426C375.739 272.193 376.99 273.323 377.596 274.132C378.12 274.858 378.04 275.706 377.353 276.231L377.192 276.352C376.425 276.918 375.658 276.756 375.052 275.948C374.486 275.14 373.8 273.808 373.276 272.435C372.71 273.808 372.023 275.141 371.459 275.948C370.853 276.756 370.086 276.918 369.319 276.352L369.156 276.231C368.43 275.706 368.389 274.858 368.914 274.132C369.52 273.323 370.771 272.193 371.78 271.385C370.489 271.385 368.873 271.143 367.944 270.86Z" fill="#263238"/>
<path d="M383.046 270.86C382.037 270.537 381.714 269.77 381.997 268.961L382.077 268.76C382.4 267.911 383.087 267.63 384.016 267.911C384.904 268.234 386.359 268.961 387.449 269.728C387.085 268.475 386.802 266.779 386.802 265.771C386.802 264.842 387.328 264.195 388.256 264.195H388.458C389.386 264.195 389.912 264.842 389.912 265.771C389.912 266.781 389.629 268.477 389.266 269.728C390.396 268.961 391.809 268.234 392.698 267.911C393.587 267.628 394.354 267.911 394.637 268.8L394.677 268.921C394.959 269.85 394.677 270.535 393.668 270.86C392.738 271.143 391.164 271.385 389.83 271.426C390.84 272.193 392.092 273.323 392.698 274.132C393.224 274.858 393.142 275.706 392.457 276.231L392.295 276.352C391.528 276.918 390.761 276.756 390.155 275.948C389.59 275.14 388.904 273.808 388.378 272.435C387.812 273.808 387.125 275.141 386.561 275.948C385.955 276.756 385.188 276.918 384.421 276.352L384.259 276.231C383.532 275.706 383.492 274.858 384.017 274.132C384.622 273.323 385.875 272.193 386.884 271.385C385.59 271.385 383.976 271.143 383.046 270.86Z" fill="#263238"/>
<path d="M398.149 270.86C397.139 270.537 396.816 269.77 397.099 268.961L397.179 268.76C397.503 267.911 398.189 267.63 399.118 267.911C400.006 268.234 401.461 268.961 402.551 269.728C402.188 268.475 401.905 266.779 401.905 265.771C401.905 264.842 402.431 264.195 403.358 264.195H403.561C404.489 264.195 405.014 264.842 405.014 265.771C405.014 266.781 404.731 268.477 404.368 269.728C405.498 268.961 406.913 268.234 407.801 267.911C408.69 267.628 409.457 267.911 409.74 268.8L409.78 268.921C410.061 269.85 409.78 270.535 408.77 270.86C407.841 271.143 406.267 271.385 404.934 271.426C405.942 272.193 407.196 273.323 407.801 274.132C408.327 274.858 408.245 275.706 407.56 276.231L407.397 276.352C406.63 276.918 405.863 276.756 405.257 275.948C404.693 275.14 404.006 273.808 403.48 272.435C402.915 273.808 402.228 275.141 401.664 275.948C401.057 276.756 400.29 276.918 399.524 276.352L399.361 276.231C398.634 275.706 398.594 274.858 399.12 274.132C399.725 273.323 400.977 272.193 401.988 271.385C400.693 271.385 399.078 271.143 398.149 270.86Z" fill="#263238"/>
<path d="M413.25 270.86C412.24 270.537 411.919 269.77 412.2 268.961L412.282 268.76C412.604 267.911 413.29 267.63 414.22 267.911C415.107 268.234 416.562 268.961 417.652 269.728C417.289 268.475 417.006 266.779 417.006 265.771C417.006 264.842 417.532 264.195 418.459 264.195H418.662C419.59 264.195 420.115 264.842 420.115 265.771C420.115 266.781 419.833 268.477 419.469 269.728C420.6 268.961 422.013 268.234 422.902 267.911C423.791 267.628 424.558 267.911 424.841 268.8L424.881 268.921C425.163 269.85 424.881 270.535 423.871 270.86C422.942 271.143 421.368 271.385 420.034 271.426C421.043 272.193 422.296 273.323 422.9 274.132C423.426 274.858 423.344 275.706 422.659 276.231L422.497 276.352C421.73 276.918 420.963 276.756 420.357 275.948C419.792 275.14 419.106 273.808 418.58 272.435C418.014 273.808 417.328 275.141 416.763 275.948C416.157 276.756 415.39 276.918 414.623 276.352L414.461 276.231C413.734 275.706 413.694 274.858 414.22 274.132C414.824 273.323 416.077 272.193 417.088 271.385C415.795 271.385 414.179 271.143 413.25 270.86Z" fill="#263238"/>
<path d="M428.351 270.86C427.341 270.537 427.02 269.77 427.301 268.961L427.383 268.76C427.705 267.911 428.391 267.63 429.32 267.911C430.208 268.234 431.663 268.961 432.753 269.728C432.39 268.475 432.107 266.779 432.107 265.771C432.107 264.842 432.633 264.195 433.56 264.195H433.763C434.691 264.195 435.216 264.842 435.216 265.771C435.216 266.781 434.933 268.477 434.57 269.728C435.7 268.961 437.114 268.234 438.003 267.911C438.892 267.628 439.659 267.911 439.942 268.8L439.982 268.921C440.263 269.85 439.982 270.535 438.972 270.86C438.043 271.143 436.469 271.385 435.134 271.426C436.144 272.193 437.397 273.323 438.003 274.132C438.529 274.858 438.447 275.706 437.762 276.231L437.599 276.352C436.832 276.918 436.065 276.756 435.459 275.948C434.895 275.14 434.208 273.808 433.683 272.435C433.117 273.808 432.43 275.141 431.866 275.948C431.26 276.756 430.493 276.918 429.726 276.352L429.563 276.231C428.836 275.706 428.796 274.858 429.322 274.132C429.927 273.323 431.179 272.193 432.19 271.385C430.896 271.385 429.28 271.143 428.351 270.86Z" fill="#263238"/>
<path d="M191.715 650.634H196.861C197.564 650.634 198.143 650.084 198.179 649.383L202.256 606.881H186.318L190.397 649.383C190.433 650.084 191.012 650.634 191.715 650.634Z" fill="white" stroke="#263238" stroke-miterlimit="10" stroke-linecap="round" stroke-linejoin="round"/>
<path d="M142.073 650.634H147.218C147.919 650.634 148.499 650.084 148.536 649.383L152.614 606.881H136.676L140.753 649.383C140.792 650.084 141.371 650.634 142.073 650.634Z" fill="white" stroke="#263238" stroke-miterlimit="10" stroke-linecap="round" stroke-linejoin="round"/>
<path d="M222.99 650.634H228.135C228.838 650.634 229.417 650.084 229.453 649.383L233.53 606.881H217.593L221.672 649.383C221.707 650.084 222.287 650.634 222.99 650.634Z" fill="white" stroke="#263238" stroke-miterlimit="10" stroke-linecap="round" stroke-linejoin="round"/>
<path d="M274.616 650.634H279.761C280.463 650.634 281.042 650.084 281.079 649.383L285.157 606.881H269.219L273.298 649.383C273.335 650.084 273.914 650.634 274.616 650.634Z" fill="white" stroke="#263238" stroke-miterlimit="10" stroke-linecap="round" stroke-linejoin="round"/>
<path d="M199.473 608.624H301.519C301.519 608.624 311.956 573.771 320.074 540.142C328.192 506.513 337.468 464.186 327.611 455.489C317.754 446.791 291.662 461.867 271.949 465.925C252.235 469.983 248.176 465.346 234.841 451.43C221.505 437.515 209.91 414.902 187.297 400.407C164.684 385.912 147.869 383.592 132.214 393.449C132.214 393.449 116.559 406.786 115.399 429.398C114.239 452.011 120.617 480.422 128.735 496.077C136.853 511.732 199.473 608.624 199.473 608.624Z" fill="white" stroke="#263238" stroke-miterlimit="10" stroke-linecap="round" stroke-linejoin="round"/>
<path d="M185.136 544.827H295.34C295.34 544.827 315.196 524.97 318.175 477.314" stroke="#263238" stroke-miterlimit="10" stroke-linecap="round" stroke-linejoin="round"/>
<path d="M262.178 352.111L249.698 359.738C249.698 359.738 258.365 407.231 256.285 432.191C254.204 457.151 243.805 481.071 243.805 481.071H277.432C277.432 481.071 289.912 451.258 295.459 430.458C301.007 409.657 291.3 360.777 291.3 360.777L262.178 352.111Z" fill="#757575" stroke="#263238" stroke-miterlimit="10" stroke-linecap="round" stroke-linejoin="round"/>
<path d="M400.522 478.695C400.522 478.695 407.692 476.429 409.61 476.438C411.529 476.446 417.77 481.336 417.77 481.336C417.77 481.336 418.017 483.127 416.608 483.504C415.2 483.881 410.358 480.533 410.358 480.533L402.291 482.923L400.522 478.695Z" fill="#D9D9D9" stroke="#263238" stroke-miterlimit="10" stroke-linecap="round" stroke-linejoin="round"/>
<path d="M401.305 474.133C401.305 474.133 408.738 475.277 410.453 476.134C412.169 476.992 415.6 484.139 415.6 484.139C415.6 484.139 415.028 485.855 413.599 485.569C412.169 485.283 409.31 480.137 409.31 480.137L401.019 478.708L401.305 474.133Z" fill="#D9D9D9" stroke="#263238" stroke-miterlimit="10" stroke-linecap="round" stroke-linejoin="round"/>
<path d="M393.482 471.854L402.916 474.141L408.919 478.144L412.351 486.435C412.351 486.435 411.207 487.579 409.777 487.293C408.348 487.007 402.344 480.432 402.344 480.432L393.768 475L390.908 471.855H393.482V471.854Z" fill="#D9D9D9" stroke="#263238" stroke-miterlimit="10" stroke-linecap="round" stroke-linejoin="round"/>
<path d="M372.897 469.281C372.897 469.281 387.479 469.853 390.623 469.853C393.768 469.853 402.058 476.428 403.488 477C404.918 477.572 410.921 486.148 410.921 486.148C410.921 486.148 411.207 486.148 409.205 486.72C407.204 487.292 404.059 485.291 404.059 485.291L400.055 480.431L390.335 478.716C390.335 478.716 397.482 482.433 399.198 483.005C400.913 483.577 402.057 485.578 401.485 486.722C400.913 487.866 392.289 484.168 392.289 484.168C392.289 484.168 389.056 485.883 385.626 484.168C382.195 482.452 381.748 482.407 378.102 480.729C374.457 479.051 367.177 474.714 367.177 474.714L372.897 469.281Z" fill="#D9D9D9" stroke="#263238" stroke-miterlimit="10" stroke-linecap="round" stroke-linejoin="round"/>
<path d="M298.576 367.363C298.576 367.363 304.124 368.403 305.51 371.523C306.897 374.643 315.91 445.363 315.91 445.363L375.468 467.139L374.333 488C374.333 488 303.777 479.337 298.923 480.377C294.07 481.416 282.284 482.803 277.431 478.99C272.577 475.176 290.993 459.225 294.347 444.551C302.289 409.802 301.297 385.974 301.297 385.974C301.297 385.974 291.644 363.202 298.576 367.363Z" fill="#92E3A9" stroke="#263238" stroke-miterlimit="10" stroke-linecap="round" stroke-linejoin="round"/>
<path d="M306.204 407.924C306.204 407.924 297.537 442.59 293.724 451.95C289.911 461.31 282.284 476.91 282.284 476.91L273.964 478.297C273.964 478.297 291.297 440.857 294.417 425.95C297.537 411.044 290.603 373.255 290.258 371.869C289.911 370.482 292.685 361.815 297.884 363.549" fill="#92E3A9"/>
<path d="M306.204 407.924C306.204 407.924 297.537 442.59 293.724 451.95C289.911 461.31 282.284 476.91 282.284 476.91L273.964 478.297C273.964 478.297 291.297 440.857 294.417 425.95C297.537 411.044 290.603 373.255 290.258 371.869C289.911 370.482 292.685 361.815 297.884 363.549" stroke="#263238" stroke-miterlimit="10" stroke-linecap="round" stroke-linejoin="round"/>
<path d="M290.605 398.217L280.551 423.524L269.804 396.484L282.631 386.43L290.605 398.217Z" fill="white" stroke="#263238" stroke-miterlimit="10" stroke-linecap="round" stroke-linejoin="round"/>
<path d="M293.03 377.764L296.844 407.23L280.551 394.75L293.03 377.764Z" fill="white" stroke="#263238" stroke-miterlimit="10" stroke-linecap="round" stroke-linejoin="round"/>
<path d="M338.445 325.336C338.445 325.336 338.089 344.906 336.505 347.616C334.92 350.327 331.54 354.515 331.398 358.245C331.257 361.976 335.708 370.052 333.032 372.657C330.356 375.261 326.679 373.979 326.679 373.979C326.679 373.979 317.956 384.426 313.098 386.819C308.24 389.211 295.245 382.386 295.245 382.386L282.284 395.792L258.364 352.459L272.056 343.241C272.056 343.241 277.341 315.998 294.308 310.265C311.277 304.528 335.806 318.472 338.445 325.336Z" fill="#D9D9D9" stroke="#263238" stroke-miterlimit="10" stroke-linecap="round" stroke-linejoin="round"/>
<path d="M290.676 350C290.676 350 285.429 360.946 289.933 367.881" stroke="#263238" stroke-miterlimit="10" stroke-linecap="round" stroke-linejoin="round"/>
<path d="M324.114 353.297C323.453 354.785 323.484 356.242 324.184 356.553C324.884 356.864 325.988 355.911 326.649 354.423C327.31 352.937 327.279 351.479 326.579 351.168C325.879 350.858 324.775 351.811 324.114 353.297Z" fill="#263238"/>
<path d="M320.921 374.865C320.921 374.865 315.685 373.818 315.685 369.629" stroke="#263238" stroke-miterlimit="10" stroke-linecap="round" stroke-linejoin="round"/>
<path d="M320.573 354.621L324.412 358.112" stroke="#263238" stroke-miterlimit="10" stroke-linecap="round" stroke-linejoin="round"/>
<path d="M331.225 347.546C331.225 347.546 331.044 342.405 322.708 344.517" stroke="#263238" stroke-miterlimit="10" stroke-linecap="round" stroke-linejoin="round"/>
<path d="M349.872 310.68C346.216 311.086 342.559 313.929 341.34 311.493C340.122 309.055 340.934 300.116 334.84 299.305C328.746 298.492 329.152 301.336 327.121 301.743C325.09 302.149 322.652 292.804 314.933 294.024C307.241 295.238 302.376 298.469 301.939 300.1C288.63 299.991 280.433 305.408 274.562 316.279C268.118 328.21 272.057 343.241 272.057 343.241C272.057 343.241 265.992 347.953 270.845 349.339C275.699 350.726 290.678 350.003 290.678 350.003C290.678 350.003 290.678 350.003 289.094 349.299C287.51 348.595 284.942 343.279 290.188 335.747C295.434 328.216 298.988 334.728 299.445 337.966C299.902 341.203 300.182 343.985 302.084 344.83C303.984 345.676 305.287 343.598 305.78 340.782C306.273 337.966 312.011 337.861 316.27 335.961C320.53 334.061 316.483 330.365 312.964 324.627C309.445 318.888 318.387 317.553 326.692 322.763C331.483 325.77 333.991 327.373 336.363 327.672L336.467 327.742C336.467 327.742 340.53 330.992 343.781 328.149C347.031 325.304 349.062 324.899 351.907 321.648C354.748 318.4 353.528 310.273 349.872 310.68Z" fill="#263238" stroke="#263238" stroke-miterlimit="10" stroke-linecap="round" stroke-linejoin="round"/>
<path d="M259.75 350.031L282.63 394.405L268.069 409.658C268.069 409.658 255.589 376.031 254.203 367.712C252.816 359.391 251.775 353.498 251.775 353.498L259.75 350.031Z" fill="white" stroke="#263238" stroke-miterlimit="10" stroke-linecap="round" stroke-linejoin="round"/>
<path d="M273.002 475.331C273.002 475.331 340.018 471.857 348.457 475.331C356.897 478.806 358.882 487.741 357.889 496.677C356.895 505.612 351.932 558.232 349.947 573.124C347.961 588.017 346.968 606.384 348.457 609.86C349.947 613.334 354.414 619.291 352.925 622.767C351.436 626.241 348.953 627.731 348.953 629.22C348.953 630.709 350.938 633.192 350.938 633.192C350.938 633.192 369.305 641.134 375.76 643.617C382.213 646.099 382.71 648.084 381.221 649.078C379.732 650.071 348.953 649.078 343.494 649.078C338.033 649.078 327.608 645.603 327.608 645.603V648.086H314.205C314.205 648.086 314.205 643.618 314.205 638.654C314.205 633.691 314.701 629.719 314.701 629.719C314.701 629.719 312.218 623.266 312.715 620.783C313.211 618.301 316.19 612.841 317.183 607.876C318.176 602.912 317.183 595.962 316.687 590.501C316.191 585.04 316.687 581.565 317.183 578.587C317.679 575.608 314.205 521.5 314.205 521.5C314.205 521.5 274.988 533.414 271.016 533.909C267.045 534.405 234.779 546.319 221.375 542.845C207.972 539.371 226.836 497.174 241.729 482.779C256.62 468.381 273.002 475.331 273.002 475.331Z" fill="#263238" stroke="#263238" stroke-miterlimit="10" stroke-linecap="round" stroke-linejoin="round"/>
<path d="M245.699 470.365C245.699 470.365 289.881 473.839 294.844 478.805C299.808 483.768 298.319 493.697 298.319 500.15C298.319 506.603 292.362 592.483 291.866 597.447C291.37 602.411 296.83 607.376 294.844 610.85C292.859 614.325 291.866 618.297 291.866 619.786C291.866 621.275 305.269 632.196 310.73 635.174C316.191 638.153 331.58 641.627 334.062 644.11C336.545 646.592 336.047 648.578 331.58 650.067C327.112 651.556 289.881 650.067 289.881 650.067C289.881 650.067 284.42 650.067 282.434 648.578C280.449 647.088 278.96 646.592 278.96 646.592L278.464 649.912H259.104C259.104 649.912 257.119 638.65 257.119 633.685C257.119 628.721 258.608 621.275 258.608 621.275C258.608 621.275 255.629 616.807 256.125 612.34C256.621 607.872 260.097 605.887 260.097 602.908C260.097 599.93 257.119 590.994 257.615 585.533C258.111 580.072 258.608 573.619 258.608 573.619L254.14 529.935C254.14 529.935 224.355 546.317 209.959 544.827C195.562 543.338 191.592 541.353 187.62 534.403C183.648 527.452 183.648 498.165 190.102 486.747C196.554 475.33 232.296 464.905 245.699 470.365Z" fill="#263238" stroke="#263238" stroke-miterlimit="10" stroke-linecap="round" stroke-linejoin="round"/>
<path d="M251.777 353.496C251.777 353.496 262.176 379.495 263.217 395.097C264.257 410.697 262.87 447.097 259.058 457.496C255.245 467.896 253.51 474.483 253.51 474.483C253.51 474.483 218.844 479.683 214.337 481.417C209.831 483.15 200.471 496.67 198.737 508.11C198.238 511.407 197.882 514.964 197.629 518.356C197.05 526.125 197.829 533.899 199.37 541.538C199.658 542.961 199.719 544.147 199.285 544.58C197.899 545.967 179.325 537.578 173.085 516.085C166.845 494.592 169.965 469.285 175.512 457.498C181.06 445.71 202.553 375.337 211.913 365.978C221.271 356.616 251.777 353.496 251.777 353.496Z" fill="#92E3A9" stroke="#263238" stroke-miterlimit="10" stroke-linecap="round" stroke-linejoin="round"/>
<path d="M369.06 478.395C369.06 478.395 382.158 480.085 385.537 480.929C388.917 481.774 391.206 484.846 391.206 484.846L389.933 486.028L380.463 482.436L369.06 478.395Z" fill="#D9D9D9" stroke="#263238" stroke-miterlimit="10" stroke-linecap="round" stroke-linejoin="round"/>
<path d="M374.421 480.477C374.421 480.477 382.423 480.967 383.403 481.946C384.382 482.926 388.628 490.111 388.628 490.111L386.668 491.417L381.28 486.355L374.422 482.599L374.421 480.477Z" fill="#D9D9D9" stroke="#263238" stroke-miterlimit="10" stroke-linecap="round" stroke-linejoin="round"/>
<path d="M359.716 477.52C359.716 477.52 374.565 478.785 377.523 480.476C380.481 482.166 384.222 489.773 384.222 489.773L382.11 490.618L374.927 483.435L357.181 480.477L359.716 477.52Z" fill="#D9D9D9" stroke="#263238" stroke-miterlimit="10" stroke-linecap="round" stroke-linejoin="round"/>
<path d="M359.071 485.049C359.071 485.049 363.153 487.171 365.277 487.171C367.399 487.171 374.095 484.885 374.095 484.885C374.095 484.885 367.399 482.109 366.093 481.945C364.785 481.783 359.071 485.049 359.071 485.049Z" fill="#D9D9D9" stroke="#263238" stroke-miterlimit="10" stroke-linecap="round" stroke-linejoin="round"/>
<path d="M341.549 470.76C341.549 470.76 359.295 474.985 361.406 476.252C363.52 477.519 373.658 482.59 374.927 483.435C376.195 484.279 379.997 491.04 379.997 491.04C379.997 491.04 377.462 493.998 376.616 491.886C375.77 489.773 371.968 485.971 371.968 485.971L364.363 483.436C364.363 483.436 360.137 485.55 355.49 485.55C350.842 485.55 345.842 480.967 345.842 480.967L337.321 483.015L341.549 470.76Z" fill="#D9D9D9" stroke="#263238" stroke-miterlimit="10" stroke-linecap="round" stroke-linejoin="round"/>
<path d="M236.551 371.756C236.551 371.756 247.081 380.943 247.952 391.313C248.824 401.682 248.688 405.854 248.774 407.586C248.862 409.316 255.028 454.862 255.028 454.862L343.534 469.197L341.832 488.861L240.972 486.921C240.972 486.921 234.101 488.309 230.376 483.292C226.652 478.273 205.111 402.154 205.111 402.154" fill="#92E3A9"/>
<path d="M236.551 371.756C236.551 371.756 247.081 380.943 247.952 391.313C248.824 401.682 248.688 405.854 248.774 407.586C248.862 409.316 255.028 454.862 255.028 454.862L343.534 469.197L341.832 488.861L240.972 486.921C240.972 486.921 234.101 488.309 230.376 483.292C226.652 478.273 205.111 402.154 205.111 402.154" stroke="#263238" stroke-miterlimit="10" stroke-linecap="round" stroke-linejoin="round"/>
<path d="M237.68 461.785C236.723 462.603 235.822 463.542 235.009 464.625" stroke="#263238" stroke-miterlimit="10" stroke-linecap="round" stroke-linejoin="round"/>
<path d="M253.685 456.39C253.685 456.39 247.193 456.162 241.158 459.413" stroke="#263238" stroke-miterlimit="10" stroke-linecap="round" stroke-linejoin="round"/>
<path d="M247.626 460.168C247.626 460.168 239.093 463.029 237.313 469.02" stroke="#263238" stroke-miterlimit="10" stroke-linecap="round" stroke-linejoin="round"/>
<path d="M199.473 608.623C199.473 608.623 197.733 546.52 182.078 505.932C166.423 465.345 157.147 460.127 150.768 461.867C144.39 463.606 135.113 474.622 129.316 467.085C123.518 459.548 114.821 438.674 118.3 420.12C121.779 401.565 128.736 398.086 132.215 393.449C135.694 388.81 117.14 399.827 109.023 412.004C100.905 424.18 100.905 453.75 105.544 484.481C110.183 515.211 121.779 602.246 125.838 605.725C129.897 609.204 139.754 609.204 139.754 609.204H193.097L199.473 608.623Z" fill="white" stroke="#263238" stroke-miterlimit="10" stroke-linecap="round" stroke-linejoin="round"/>
<path d="M488.759 486.885H352.493V492.842H488.759V486.885Z" fill="white" stroke="#263238" stroke-miterlimit="10" stroke-linecap="round" stroke-linejoin="round"/>
<path d="M488.759 486.885H422.76V492.842H488.759V486.885Z" fill="#B2B2B2" stroke="#263238" stroke-miterlimit="10" stroke-linecap="round" stroke-linejoin="round"/>
<path d="M507.747 433.641H441.748L422.76 486.881H488.759L507.747 433.641Z" fill="#D9D9D9" stroke="#263238" stroke-miterlimit="10" stroke-linecap="round" stroke-linejoin="round"/>
<path d="M438.511 650.731H439.443C441.571 650.731 443.297 649.005 443.297 646.877V496.523H434.656V646.875C434.658 649.005 436.383 650.731 438.511 650.731Z" fill="#525252" stroke="#263238" stroke-miterlimit="10" stroke-linecap="round" stroke-linejoin="round"/>
<path d="M454.221 650.731H455.153C457.281 650.731 459.007 649.005 459.007 646.877V496.523H450.368V646.875C450.367 649.005 452.091 650.731 454.221 650.731Z" fill="#525252" stroke="#263238" stroke-miterlimit="10" stroke-linecap="round" stroke-linejoin="round"/>
<path d="M331.962 650.731H332.895C335.023 650.731 336.749 649.005 336.749 646.877V496.523H328.108V646.875C328.108 649.005 329.834 650.731 331.962 650.731Z" fill="#525252" stroke="#263238" stroke-miterlimit="10" stroke-linecap="round" stroke-linejoin="round"/>
<path d="M547.108 650.731H548.041C550.169 650.731 551.895 649.005 551.895 646.877V496.523H543.254V646.875C543.256 649.005 544.98 650.731 547.108 650.731Z" fill="#525252" stroke="#263238" stroke-miterlimit="10" stroke-linecap="round" stroke-linejoin="round"/>
<path d="M318.041 500.039L560.032 500.039V493.01L318.041 493.01V500.039Z" fill="white" stroke="#263238" stroke-miterlimit="10" stroke-linecap="round" stroke-linejoin="round"/>
<path d="M318.041 574.557H560.032V567.527H318.041V574.557Z" fill="white" stroke="#263238" stroke-miterlimit="10" stroke-linecap="round" stroke-linejoin="round"/>
<path d="M424.388 560.363H361.199V567.409H424.388V560.363Z" fill="white" stroke="#263238" stroke-miterlimit="10" stroke-linecap="round" stroke-linejoin="round"/>
<path d="M424.388 560.363H396.006V567.409H424.388V560.363Z" fill="white" stroke="#263238" stroke-miterlimit="10" stroke-linecap="round" stroke-linejoin="round"/>
<path d="M520.326 560.363H457.137V567.409H520.326V560.363Z" fill="white" stroke="#263238" stroke-miterlimit="10" stroke-linecap="round" stroke-linejoin="round"/>
<path d="M520.326 560.363H491.943V567.409H520.326V560.363Z" fill="white" stroke="#263238" stroke-miterlimit="10" stroke-linecap="round" stroke-linejoin="round"/>
<path d="M419.167 552.988H355.978V560.034H419.167V552.988Z" fill="white" stroke="#263238" stroke-miterlimit="10" stroke-linecap="round" stroke-linejoin="round"/>
<path d="M419.167 552.988H390.785V560.034H419.167V552.988Z" fill="white" stroke="#263238" stroke-miterlimit="10" stroke-linecap="round" stroke-linejoin="round"/>
</svg>
