<svg width="120" height="121" viewBox="0 0 120 121" fill="none" xmlns="http://www.w3.org/2000/svg">
<path d="M60 5.42672C63.6022 5.42672 67.2859 7.75115 71.1857 10.2121C73.6761 11.7836 76.2514 13.4086 79.0257 14.5591C81.9164 15.7578 84.9676 16.4689 87.9183 17.1565C92.3597 18.1916 96.5547 19.1692 98.9429 21.5574C101.331 23.9456 102.309 28.1406 103.344 32.5819C104.031 35.5325 104.743 38.5838 105.941 41.4745C107.092 44.2486 108.717 46.824 110.288 49.3144C112.749 53.2142 115.073 56.8978 115.073 60.5001C115.073 64.1025 112.749 67.786 110.288 71.6858C108.717 74.1762 107.092 76.7515 105.941 79.5256C104.742 82.4164 104.031 85.4676 103.344 88.4183C102.309 92.8597 101.331 97.0547 98.9428 99.4429C96.5546 101.831 92.3597 102.809 87.9183 103.844C84.9676 104.531 81.9164 105.243 79.0257 106.441C76.2514 107.592 73.6762 109.217 71.1857 110.788C67.2859 113.249 63.6024 115.574 60 115.574C56.3976 115.574 52.7141 113.249 48.8143 110.788C46.3238 109.217 43.7486 107.592 40.9743 106.441C38.0836 105.242 35.0324 104.531 32.0817 103.844C27.6403 102.809 23.4453 101.831 21.0572 99.4429C18.6691 97.0547 17.6915 92.8596 16.6563 88.4184C15.9687 85.4677 15.2576 82.4165 14.0589 79.5258C12.9085 76.7515 11.2835 74.1763 9.71192 71.6858C7.25099 67.786 4.92656 64.1023 4.92656 60.5001C4.92656 56.8978 7.25099 53.2142 9.71192 49.3144C11.2835 46.8238 12.9085 44.2486 14.0589 41.4744C15.2576 38.5836 15.9687 35.5324 16.6563 32.5817C17.6915 28.1403 18.6691 23.9453 21.0572 21.5571C23.4454 19.1689 27.6405 18.1914 32.0817 17.1562C35.0324 16.4686 38.0836 15.7574 40.9743 14.5588C43.7486 13.4083 46.3238 11.7833 48.8143 10.2118C52.7141 7.75114 56.3978 5.42672 60 5.42672ZM60 0.5C52.2284 0.5 45.8452 7.20574 39.0872 10.008C32.0816 12.913 22.8532 12.794 17.5735 18.0736C12.2939 23.3532 12.413 32.5816 9.50798 39.5873C6.70559 46.3453 0 52.7284 0 60.5001C0 68.2717 6.70574 74.6549 9.50798 81.4129C12.413 88.4187 12.294 97.6469 17.5735 102.927C22.8532 108.206 32.0816 108.087 39.0872 110.992C45.8452 113.795 52.2284 120.5 60 120.5C67.7717 120.5 74.1548 113.795 80.9128 110.992C87.9186 108.087 97.1468 108.206 102.426 102.927C107.706 97.6471 107.587 88.4187 110.492 81.413C113.294 74.655 120 68.2719 120 60.5002C120 52.7287 113.294 46.3454 110.492 39.5874C107.587 32.5816 107.706 23.3534 102.426 18.0737C97.1468 12.794 87.9186 12.9132 80.9128 10.0081C74.1548 7.20574 67.7717 0.5 60 0.5Z" fill="#3AD29F"/>
<path d="M60.0003 101.711C54.4376 101.711 49.0403 100.621 43.9586 98.4719C39.0509 96.3962 34.6438 93.4249 30.8597 89.6407C27.0755 85.8566 24.1042 81.4494 22.0285 76.5418C19.879 71.4599 18.7891 66.0627 18.7891 60.5001C18.7891 54.9374 19.879 49.5401 22.0285 44.4583C24.1042 39.5507 27.0755 35.1435 30.8597 31.3594C34.6438 27.5752 39.051 24.6041 43.9586 22.5283C49.0403 20.3788 54.4376 19.2891 60.0003 19.2891C65.563 19.2891 70.9603 20.379 76.042 22.5283C80.9497 24.6041 85.3568 27.5753 89.1409 31.3594C92.9251 35.1437 95.8964 39.5507 97.9721 44.4583C100.122 49.5402 101.212 54.9374 101.212 60.5001C101.212 66.0627 100.122 71.46 97.9721 76.5418C95.8964 81.4495 92.9251 85.8566 89.1409 89.6407C85.3568 93.4249 80.9496 96.396 76.042 98.4719C70.9603 100.621 65.563 101.711 60.0003 101.711ZM60.0003 24.6173C55.1555 24.6173 50.4564 25.5659 46.0337 27.4365C41.7611 29.2436 37.9234 31.8312 34.6276 35.1272C31.3316 38.4231 28.7441 42.2608 26.9369 46.5335C25.0663 50.9561 24.1179 55.6552 24.1179 60.5001C24.1179 65.3451 25.0665 70.044 26.9369 74.4667C28.7441 78.7393 31.3316 82.577 34.6276 85.873C37.9235 89.1689 41.7611 91.7565 46.0337 93.5636C50.4564 95.4342 55.1555 96.3827 60.0003 96.3827C64.8451 96.3827 69.5442 95.4341 73.9669 93.5636C78.2395 91.7565 82.0772 89.1689 85.3732 85.873C88.6691 82.577 91.2567 78.7395 93.0638 74.4667C94.9344 70.044 95.883 65.3449 95.883 60.5001C95.883 55.6552 94.9344 50.9561 93.0638 46.5335C91.2567 42.2608 88.6691 38.4231 85.3732 35.1272C82.0772 31.8312 78.2397 29.2436 73.9669 27.4365C69.5442 25.5657 64.8451 24.6173 60.0003 24.6173Z" fill="#3AD29F"/>
<path d="M59.9999 88.1444C75.2675 88.1444 87.6443 75.7675 87.6443 60.4999C87.6443 45.2323 75.2675 32.8555 59.9999 32.8555C44.7323 32.8555 32.3555 45.2323 32.3555 60.4999C32.3555 75.7675 44.7323 88.1444 59.9999 88.1444Z" fill="#3AD29F"/>
<path d="M56.9002 71.5376C56.0332 71.5376 55.2015 71.1932 54.5884 70.5801L47.3013 63.293C46.0246 62.0163 46.0246 59.9463 47.3013 58.6695C48.5781 57.3927 50.6479 57.3927 51.9249 58.6695L56.9002 63.6448L66.8374 53.7076C68.1141 52.4308 70.184 52.4308 71.4609 53.7076C72.7376 54.9844 72.7376 57.0543 71.4609 58.331L59.2119 70.5799C58.5988 71.1932 57.7671 71.5376 56.9002 71.5376Z" fill="white"/>
</svg>
