<svg width="120" height="143" viewBox="0 0 120 143" fill="none" xmlns="http://www.w3.org/2000/svg">
<path d="M0.375 62.8596L57.1684 15.1625C58.7842 13.8052 61.2467 13.8052 62.8625 15.1625L119.655 62.8596H0.375Z" fill="#3AD29F"/>
<path d="M119.655 62.8594H0.375V142.755H119.655V62.8594Z" fill="#3AD29F"/>
<g opacity="0.3">
<path d="M8.58984 62.8583L58.3266 21.0876C59.2842 20.2833 60.7432 20.2833 61.7008 21.0876L111.438 62.8583H8.58984Z" fill="black"/>
</g>
<g opacity="0.3">
<path d="M0.375 62.8594L56.4832 103.381C58.488 104.829 61.5429 104.829 63.5477 103.381L119.656 62.8594H0.375Z" fill="black"/>
</g>
<path d="M63.5472 103.38C63.5472 103.38 63.6324 103.311 63.8042 103.183C63.9808 103.052 64.2373 102.863 64.5746 102.614C65.2602 102.114 66.2706 101.376 67.5868 100.415C70.2313 98.4936 74.0996 95.6831 79.0112 92.1143C88.8513 84.9841 102.868 74.828 119.59 62.7111L119.655 62.9129C101.978 62.9173 81.4728 62.9221 59.7118 62.9274C38.1817 62.9221 17.8835 62.9172 0.341634 62.9134L0.407929 62.7116C17.1722 75.0433 31.2329 85.3867 41.1068 92.6505C46.0354 96.2855 49.9177 99.1498 52.5724 101.108C53.8934 102.087 54.9077 102.839 55.5963 103.349C55.935 103.603 56.1929 103.796 56.37 103.928C56.5428 104.058 56.6284 104.129 56.6284 104.129C56.6284 104.129 56.536 104.068 56.3594 103.942C56.1798 103.813 55.9185 103.625 55.5755 103.378C54.8825 102.873 53.861 102.131 52.5312 101.164C49.8679 99.2175 45.9729 96.3707 41.0285 92.7569C31.1414 85.511 17.0618 75.1933 0.275339 62.8916L0 62.6898H0.341634C17.8835 62.6855 38.1822 62.6806 59.7118 62.6758C81.4724 62.6811 101.978 62.6859 119.655 62.6903H120L119.72 62.8921C102.976 74.9785 88.9418 85.1094 79.0887 92.2218C74.1616 95.7687 70.2807 98.5623 67.6275 100.472C66.303 101.421 65.2854 102.149 64.5954 102.644C64.2532 102.886 63.9934 103.071 63.8143 103.198C63.6392 103.32 63.5472 103.38 63.5472 103.38Z" fill="#263238"/>
<path d="M116.722 0.371094H7.21875V126.807H116.722V0.371094Z" fill="white"/>
<path d="M116.724 126.808C116.723 125.841 116.679 75.7669 116.612 0.371913L116.724 0.483207C84.4365 0.487563 46.9812 0.492401 7.23118 0.497724H7.22005L7.34586 0.371913C7.33861 47.0131 7.33183 90.4886 7.32602 126.808L7.21957 126.702C73.149 126.766 115.83 126.807 116.724 126.808C115.831 126.809 73.1495 126.85 7.22005 126.915H7.11359V126.808C7.10778 90.4886 7.10101 47.0126 7.09375 0.371913V0.246094H7.21957H7.23069C46.9802 0.251417 84.436 0.256255 116.723 0.26061H116.835V0.371913C116.769 75.7669 116.725 125.842 116.724 126.808Z" fill="#263238"/>
<g opacity="0.2">
<path d="M93.6108 11.4575C89.6191 5.89604 81.3028 4.63403 75.0876 7.50307C68.8719 10.3721 64.6682 16.5273 62.5807 23.0469C60.4926 29.5665 60.2444 36.5114 60.0136 43.3533C59.7823 36.5114 59.534 29.5665 57.4465 23.0469C55.3585 16.5273 51.1548 10.3721 44.9396 7.50307C38.7239 4.63403 30.4081 5.89604 26.4159 11.4575C22.747 16.5694 23.4602 23.5332 24.6874 29.7049C29.9208 56.0295 45.7545 84.9416 59.7102 107.891L59.7087 108.207C73.6804 85.2402 90.0986 56.0716 95.3402 29.7049C96.5665 23.5337 97.2797 16.5694 93.6108 11.4575Z" fill="#3AD29F"/>
</g>
<path d="M63.5477 103.379C61.5429 104.827 58.488 104.827 56.4832 103.379L0.375 62.8574V142.753H119.655V62.8574L63.5477 103.379Z" fill="#3AD29F"/>
<path d="M0.375 142.753L56.6289 104.128C58.6409 102.746 61.39 102.746 63.402 104.128L119.655 142.753" fill="#3AD29F"/>
<path d="M119.655 142.752C119.655 142.752 119.547 142.688 119.342 142.552C119.132 142.411 118.831 142.21 118.438 141.946C117.64 141.405 116.474 140.614 114.974 139.597C111.965 137.542 107.624 134.578 102.26 130.916C96.8962 127.242 90.5116 122.87 83.4229 118.015C79.8793 115.584 76.1601 113.033 72.3043 110.389C70.377 109.066 68.4152 107.721 66.4245 106.354C65.4291 105.671 64.4265 104.983 63.4175 104.29C62.4352 103.596 61.2356 103.216 60.0191 103.217C58.8026 103.215 57.6015 103.593 56.6187 104.287C55.6093 104.98 54.6062 105.668 53.6108 106.352C51.6196 107.718 49.6573 109.065 47.729 110.388C43.8723 113.033 40.1521 115.584 36.608 118.015C29.5184 122.87 23.1333 127.243 17.7693 130.917C12.4057 134.579 8.06417 137.543 5.05625 139.597C3.55664 140.614 2.39093 141.405 1.59249 141.946C1.19957 142.21 0.898094 142.411 0.688081 142.552C0.483391 142.688 0.375 142.752 0.375 142.752C0.375 142.752 0.473714 142.673 0.673565 142.531C0.88019 142.385 1.17682 142.177 1.56394 141.905C2.35609 141.354 3.51261 140.55 5.0006 139.516C7.99788 137.447 12.3235 134.46 17.6681 130.77C23.0235 127.083 29.3984 122.695 36.4764 117.823C40.018 115.389 43.7354 112.833 47.5891 110.184C49.5165 108.86 51.4778 107.513 53.4685 106.145C54.4639 105.461 55.4666 104.773 56.476 104.079C57.4955 103.359 58.7532 102.961 60.0191 102.965C61.2845 102.963 62.5412 103.362 63.5598 104.083C64.5687 104.776 65.5714 105.464 66.5663 106.147C68.5561 107.514 70.5173 108.862 72.4442 110.186C76.297 112.834 80.0139 115.389 83.5546 117.823C90.6316 122.694 97.006 127.082 102.361 130.769C107.706 134.459 112.032 137.446 115.029 139.516C116.517 140.55 117.674 141.354 118.466 141.904C118.854 142.177 119.15 142.385 119.357 142.531C119.557 142.673 119.655 142.752 119.655 142.752Z" fill="#263238"/>
<path d="M40.5897 52.5679H36.6328V27.3867H40.5897V38.1787H45.0866V27.3867H49.1155V52.5679H45.0866V41.776H40.5897V52.5679Z" fill="#263238"/>
<path d="M71.1795 55.9766V75.9205C71.1795 77.7671 71.9925 78.4324 73.285 78.4324C74.578 78.4324 75.3904 77.7676 75.3904 75.9205V55.9766H79.2316V75.6621C79.2316 79.7985 77.1634 82.1623 73.1746 82.1623C69.1854 82.1623 67.1172 79.7985 67.1172 75.6621V55.9766H71.1795Z" fill="#263238"/>
<path d="M64.457 50.5046H60.3047L59.5938 45.7542H54.5438L53.833 50.5046H50.0547L54.2443 24.3203H60.2669L64.457 50.5046ZM55.0679 42.2004H59.033L57.0504 28.9585L55.0679 42.2004Z" fill="#263238"/>
<path d="M70.0939 33.6026V52.5671H66.3906V26.3828H71.5524L75.7793 42.0559V26.3828H79.4448V52.5671H75.2179L70.0939 33.6026Z" fill="#263238"/>
<path d="M88.6021 36.8415L87.7611 39.3016L88.9805 46.9182L85.0837 47.5424L81.1133 22.744L85.0096 22.1203L86.7396 32.9253L90.1109 21.3034L94.0083 20.6797L90.3577 32.6001L97.9787 45.4781L93.9758 46.1188L88.6021 36.8415Z" fill="#263238"/>
<path d="M52.3125 66.8335C52.3125 62.6439 54.5196 60.25 58.5592 60.25C62.5988 60.25 64.8058 62.6439 64.8058 66.8335V80.4494C64.8058 84.6386 62.5988 87.0324 58.5592 87.0324C54.5196 87.0324 52.3125 84.6386 52.3125 80.4494V66.8335ZM56.4271 80.7112C56.4271 82.5815 57.2502 83.2924 58.5592 83.2924C59.8681 83.2924 60.6912 82.5815 60.6912 80.7112V66.5717C60.6912 64.7014 59.8681 63.9906 58.5592 63.9906C57.2502 63.9906 56.4271 64.7014 56.4271 66.5717V80.7112Z" fill="#263238"/>
<path d="M43.0901 73.1525L37.8906 55.6465H42.1925L45.3345 67.5785L48.4769 55.6465H52.4047L47.2052 73.1525V81.8308H43.0906L43.0901 73.1525Z" fill="#263238"/>
<path d="M23.9961 20.4609H36.7265V24.2054H32.4208V46.6709H28.3023V24.2054H23.9966L23.9961 20.4609Z" fill="#263238"/>
<path d="M87.7448 71.1417L87.0315 74.455L83.7188 73.7417L84.432 70.429L87.7448 71.1417ZM85.1361 68.9782L86.4005 60.9764L88.3647 51.8496L91.8028 52.5895L89.8386 61.7163L87.6993 69.5294L85.1361 68.9782Z" fill="#263238"/>
</svg>
